<?xml version="1.0" encoding="UTF-8"?>
<svg width="220px" height="220px" viewBox="0 0 220 220" version="1.1" xmlns="http://www.w3.org/2000/svg" xmlns:xlink="http://www.w3.org/1999/xlink">
    <!-- Generator: Sketch 61 (89581) - https://sketch.com -->
    <title>提交失败@2x</title>
    <desc>Created with Sketch.</desc>
    <defs>
        <radialGradient cx="50%" cy="53.1376138%" fx="50%" fy="53.1376138%" r="79.4302246%" gradientTransform="translate(0.500000,0.531376),scale(1.000000,0.989529),scale(1.000000,1.009335),translate(-0.500000,-0.531376)" id="radialGradient-1">
            <stop stop-color="#FFDFAE" offset="0%"></stop>
            <stop stop-color="#FFE389" offset="100%"></stop>
        </radialGradient>
        <filter x="-50.2%" y="-49.7%" width="200.4%" height="199.4%" filterUnits="objectBoundingBox" id="filter-2">
            <feGaussianBlur stdDeviation="24" in="SourceGraphic"></feGaussianBlur>
        </filter>
        <linearGradient x1="50%" y1="113.24824%" x2="50%" y2="-34.9879449%" id="linearGradient-3">
            <stop stop-color="#FFEDD9" stop-opacity="0" offset="0%"></stop>
            <stop stop-color="#FCDF97" stop-opacity="0.682036713" offset="34.6856228%"></stop>
            <stop stop-color="#FFC489" offset="100%"></stop>
        </linearGradient>
        <linearGradient x1="50%" y1="113.24824%" x2="50%" y2="-34.9879449%" id="linearGradient-4">
            <stop stop-color="#FFEDD9" stop-opacity="0" offset="0%"></stop>
            <stop stop-color="#FCDF97" stop-opacity="0.682036713" offset="34.6856228%"></stop>
            <stop stop-color="#FFC489" offset="100%"></stop>
        </linearGradient>
        <path d="M13.6906552,67.579868 C13.1459201,65.1179623 11.8124406,62.9721404 9.03924372,62.9721404 C5.91914631,62.9721404 5.42418345,65.8611791 4.48327735,67.579868 C2.85932762,66.8518591 0,68.5927175 0,70.7759168 C0,73.1449204 1.9576873,74.3526477 4.48327735,74.3526477 L14.3380307,74.3526477 C16.4179284,74.3526477 18.2088117,72.773312 18.2088117,70.7759168 C18.2088117,68.9178748 15.8185208,66.5312254 13.6906552,67.579868 Z" id="path-5"></path>
        <filter x="-11.5%" y="-18.5%" width="123.1%" height="136.9%" filterUnits="objectBoundingBox" id="filter-6">
            <feGaussianBlur stdDeviation="0.7" in="SourceGraphic"></feGaussianBlur>
        </filter>
        <filter x="-25.3%" y="-40.4%" width="150.5%" height="180.8%" filterUnits="objectBoundingBox" id="filter-7">
            <feGaussianBlur stdDeviation="2" in="SourceAlpha" result="shadowBlurInner1"></feGaussianBlur>
            <feOffset dx="0" dy="-1" in="shadowBlurInner1" result="shadowOffsetInner1"></feOffset>
            <feComposite in="shadowOffsetInner1" in2="SourceAlpha" operator="arithmetic" k2="-1" k3="1" result="shadowInnerInner1"></feComposite>
            <feColorMatrix values="0 0 0 0 1   0 0 0 0 0.896903844   0 0 0 0 0.792751736  0 0 0 1 0" type="matrix" in="shadowInnerInner1"></feColorMatrix>
        </filter>
        <linearGradient x1="50%" y1="-14.241728%" x2="50%" y2="126.883588%" id="linearGradient-8">
            <stop stop-color="#FFF4E7" stop-opacity="0" offset="0%"></stop>
            <stop stop-color="#E7A25D" offset="100%"></stop>
        </linearGradient>
        <linearGradient x1="-31.5219133%" y1="44.7044826%" x2="98.712135%" y2="44.7044826%" id="linearGradient-9">
            <stop stop-color="#E8DFDB" offset="0%"></stop>
            <stop stop-color="#CCB9B5" offset="100%"></stop>
        </linearGradient>
        <linearGradient x1="100%" y1="0%" x2="100%" y2="121.05008%" id="linearGradient-10">
            <stop stop-color="#E8E2DB" stop-opacity="0.457331731" offset="0%"></stop>
            <stop stop-color="#CCC3B5" offset="100%"></stop>
        </linearGradient>
        <filter x="-284.8%" y="-14.3%" width="669.6%" height="128.7%" filterUnits="objectBoundingBox" id="filter-11">
            <feGaussianBlur stdDeviation="1" in="SourceGraphic"></feGaussianBlur>
        </filter>
        <linearGradient x1="-31.5219133%" y1="44.7044826%" x2="98.712135%" y2="44.7044826%" id="linearGradient-12">
            <stop stop-color="#E8DFDB" offset="0%"></stop>
            <stop stop-color="#CCB9B5" offset="100%"></stop>
        </linearGradient>
        <linearGradient x1="100%" y1="0%" x2="100%" y2="121.05008%" id="linearGradient-13">
            <stop stop-color="#E8E2DB" stop-opacity="0.457331731" offset="0%"></stop>
            <stop stop-color="#CCC3B5" offset="100%"></stop>
        </linearGradient>
        <filter x="-292.1%" y="-12.2%" width="684.1%" height="124.4%" filterUnits="objectBoundingBox" id="filter-14">
            <feGaussianBlur stdDeviation="1" in="SourceGraphic"></feGaussianBlur>
        </filter>
        <path d="M90.8891734,50.0742321 C88.389786,50.0742321 86.4918555,48.301858 86.4918555,45.9386926 C86.4918555,43.9418178 88.6410613,42.7838667 90.6191861,42.3584969 C91.127083,40.2198322 92.4395956,38.2229574 94.938983,38.2229574 C95.6740969,38.2229574 96.4092109,38.3647473 97.0774963,38.6246955 C98.3205071,36.7814265 100.55258,35.6589229 103.011871,35.6589229 C106.847829,35.6589229 109.159168,39.6667267 109.159168,41.758059 C109.159168,41.9352965 109.962039,42.1812595 109.948673,42.3584969 C111.378804,43.0910782 112.287672,44.4617142 112.287672,45.9386926 C112.287672,48.2191472 110.189256,50.0742321 107.62304,50.0742321 L90.8891734,50.0742321 Z" id="path-15"></path>
        <filter x="-8.1%" y="-14.6%" width="116.3%" height="129.1%" filterUnits="objectBoundingBox" id="filter-16">
            <feGaussianBlur stdDeviation="0.7" in="SourceGraphic"></feGaussianBlur>
        </filter>
        <filter x="-17.8%" y="-31.9%" width="135.7%" height="163.8%" filterUnits="objectBoundingBox" id="filter-17">
            <feGaussianBlur stdDeviation="2" in="SourceAlpha" result="shadowBlurInner1"></feGaussianBlur>
            <feOffset dx="0" dy="-1" in="shadowBlurInner1" result="shadowOffsetInner1"></feOffset>
            <feComposite in="shadowOffsetInner1" in2="SourceAlpha" operator="arithmetic" k2="-1" k3="1" result="shadowInnerInner1"></feComposite>
            <feColorMatrix values="0 0 0 0 1   0 0 0 0 0.896903844   0 0 0 0 0.792751736  0 0 0 1 0" type="matrix" in="shadowInnerInner1"></feColorMatrix>
        </filter>
        <linearGradient x1="67.1415399%" y1="44.354217%" x2="52.7243737%" y2="57.05335%" id="linearGradient-18">
            <stop stop-color="#FFB400" stop-opacity="0" offset="0%"></stop>
            <stop stop-color="#D04800" stop-opacity="0.423541302" offset="100%"></stop>
        </linearGradient>
        <linearGradient x1="-31.5219133%" y1="44.7044826%" x2="98.712135%" y2="44.7044826%" id="linearGradient-19">
            <stop stop-color="#E8DFDB" offset="0%"></stop>
            <stop stop-color="#CCB9B5" offset="100%"></stop>
        </linearGradient>
        <linearGradient x1="100%" y1="0%" x2="100%" y2="121.05008%" id="linearGradient-20">
            <stop stop-color="#E8E2DB" stop-opacity="0.457331731" offset="0%"></stop>
            <stop stop-color="#CCC3B5" offset="100%"></stop>
        </linearGradient>
        <filter x="-197.2%" y="-15.8%" width="494.5%" height="131.5%" filterUnits="objectBoundingBox" id="filter-21">
            <feGaussianBlur stdDeviation="1" in="SourceGraphic"></feGaussianBlur>
        </filter>
        <linearGradient x1="50%" y1="-10.7275957%" x2="50%" y2="125.383032%" id="linearGradient-22">
            <stop stop-color="#FFB400" offset="0%"></stop>
            <stop stop-color="#FD5902" offset="100%"></stop>
        </linearGradient>
        <path d="M5.37902356,3 C5.37902356,1.34314575 6.72216931,-4.68653846e-13 8.37902356,-4.68958206e-13 L56.5106539,-4.68958206e-13 C58.1675081,-4.69262565e-13 59.5106539,1.34314575 59.5106539,3 L59.5106539,29.9291922 C59.5106539,30.3838928 59.4094946,30.8149664 59.2284538,31.2011353 L59.2276674,53.5355569 L49.5630575,39.2150391 L43.9672508,45.5162295 L40.6324295,35.7770262 L35.6865607,37.9982176 L31.8021984,29.3554273 L24.3481683,41.1120534 L20.827231,30.5485144 L16.1514358,33.8186498 L9.71402356,23.999 L9.27202356,23.914 L5.37902356,26.6028172 L5.37902356,3 Z" id="path-23"></path>
        <filter x="-9.2%" y="-9.3%" width="125.9%" height="126.2%" filterUnits="objectBoundingBox" id="filter-24">
            <feOffset dx="2" dy="2" in="SourceAlpha" result="shadowOffsetOuter1"></feOffset>
            <feGaussianBlur stdDeviation="2" in="shadowOffsetOuter1" result="shadowBlurOuter1"></feGaussianBlur>
            <feColorMatrix values="0 0 0 0 0.937754755   0 0 0 0 0.482733469   0 0 0 0 0  0 0 0 1 0" type="matrix" in="shadowBlurOuter1"></feColorMatrix>
        </filter>
        <linearGradient x1="50%" y1="-10.7275957%" x2="50%" y2="125.383032%" id="linearGradient-25">
            <stop stop-color="#FFB400" offset="0%"></stop>
            <stop stop-color="#FD5902" offset="100%"></stop>
        </linearGradient>
        <path d="M5.37902356,39.2008632 L10.0538948,35.6589229 L16.0482491,46.2928202 L20.979191,40.9758715 L23.4400236,51.7079229 L24.4840236,52.1529229 L31.9827469,40.9758715 L35.0371803,49.5042704 L40.2892174,47.1478916 L43.3488298,58.114325 L50.2322382,51.5488758 L59.2618894,65.2099411 L59.2610236,67.6479229 L59.3494165,69.536191 C59.4269937,71.1912281 58.1482097,72.5957895 56.4931726,72.6733667 C56.345394,72.6802936 56.1973054,72.6762797 56.050119,72.661358 L8.0764358,67.7978059 C6.54460159,67.6425091 5.37902356,66.3527908 5.37902356,64.8131048 L5.37902356,39.2008632 Z" id="path-26"></path>
        <filter x="-9.3%" y="-13.5%" width="125.8%" height="137.5%" filterUnits="objectBoundingBox" id="filter-27">
            <feOffset dx="2" dy="2" in="SourceAlpha" result="shadowOffsetOuter1"></feOffset>
            <feGaussianBlur stdDeviation="2" in="shadowOffsetOuter1" result="shadowBlurOuter1"></feGaussianBlur>
            <feColorMatrix values="0 0 0 0 0.937754755   0 0 0 0 0.482733469   0 0 0 0 0  0 0 0 1 0" type="matrix" in="shadowBlurOuter1"></feColorMatrix>
        </filter>
        <linearGradient x1="56.0847783%" y1="65.2405938%" x2="50%" y2="40.9930323%" id="linearGradient-28">
            <stop stop-color="#CC7921" offset="0%"></stop>
            <stop stop-color="#FFD8B2" offset="100%"></stop>
        </linearGradient>
        <path d="M4.76420686,9.28693403 C17.7013728,7.52034348 27.454903,6.47308635 34.0247978,6.14516265 C34.7622348,6.04441764 35.2874889,6.04441764 35.6005603,6.14516265 C35.719223,6.1833478 35.9457659,6.31311181 36.2801889,6.53445467 C36.8397746,6.90484422 37.1763228,7.53118 37.1763228,8.20224225 L37.1763228,18.4824585 C37.1763228,19.587028 36.2808923,20.4824585 35.1763228,20.4824585 C35.1245174,20.4824585 35.0727317,20.4804457 35.0210826,20.4764246 L4.87956071,18.1297572 C3.83835127,18.0486939 3.03480088,17.1801515 3.03480088,16.1357912 L3.03480088,13.7554399 L3.03480088,13.7554399 L3.03480088,11.2685589 C3.03478635,10.2685505 3.77339337,9.42223119 4.76420686,9.28693403 Z" id="path-29"></path>
        <filter x="-11.7%" y="-27.6%" width="129.3%" height="168.5%" filterUnits="objectBoundingBox" id="filter-30">
            <feOffset dx="1" dy="1" in="SourceAlpha" result="shadowOffsetOuter1"></feOffset>
            <feGaussianBlur stdDeviation="1.5" in="shadowOffsetOuter1" result="shadowBlurOuter1"></feGaussianBlur>
            <feColorMatrix values="0 0 0 0 0.807687953   0 0 0 0 0.415778224   0 0 0 0 0  0 0 0 0.441242351 0" type="matrix" in="shadowBlurOuter1"></feColorMatrix>
        </filter>
        <linearGradient x1="50%" y1="113.340538%" x2="50%" y2="0%" id="linearGradient-31">
            <stop stop-color="#FFF2DE" offset="0%"></stop>
            <stop stop-color="#FFFFFF" offset="100%"></stop>
        </linearGradient>
        <linearGradient x1="50%" y1="0%" x2="50%" y2="100%" id="linearGradient-32">
            <stop stop-color="#FFEDA1" offset="0%"></stop>
            <stop stop-color="#FED667" offset="100%"></stop>
        </linearGradient>
        <linearGradient x1="50%" y1="0%" x2="50%" y2="100%" id="linearGradient-33">
            <stop stop-color="#FFEDA1" offset="0%"></stop>
            <stop stop-color="#FED667" offset="100%"></stop>
        </linearGradient>
        <linearGradient x1="50%" y1="0%" x2="50%" y2="100%" id="linearGradient-34">
            <stop stop-color="#FFEDA1" offset="0%"></stop>
            <stop stop-color="#FED667" offset="100%"></stop>
        </linearGradient>
        <linearGradient x1="64.3672484%" y1="87.7937148%" x2="42.8139417%" y2="41.9339321%" id="linearGradient-35">
            <stop stop-color="#AF6415" offset="0%"></stop>
            <stop stop-color="#E77E23" offset="100%"></stop>
        </linearGradient>
        <path d="M1.51740097,1.54967229 L1.51740097,0 C2.55889667,0.520020683 6.05775617,2.46569995 9.01099279,5.04355911 C9.43241428,5.41141492 9.4541789,6.00819765 9.86311137,6.3892302 C13.1381466,3.33837028 15.2248167,0.59422331 16.4149118,0 L18.2088117,1.54967229 C17.1815042,2.31765337 14.2702458,4.84273582 11.4413134,7.90488146 C14.677799,11.096779 17.6062745,14.4530291 18.2088117,15.0370986 C17.8701182,15.0532706 17.5022342,15.1822704 17.1047833,15.4233454 C16.707334,15.6640454 16.1407237,16.3398824 15.4049525,17.4501112 C15.3096967,17.2532385 14.4692304,17.165246 14.2148167,16.7536282 C13.2867558,15.2521108 12.0507797,12.2813768 9.86310633,9.68944192 C7.07608589,12.9922875 4.76400062,16.5350729 4.32126017,17.4501112 C4.05127527,17.0427226 3.17274863,17.0439758 2.94831737,16.7536282 C2.56112299,16.2527131 2.87303988,15.5758213 2.62142938,15.4229738 C2.2239801,15.1822738 1.85609447,15.0532754 1.51740097,15.037102 C2.11993819,14.4530307 5.04841366,11.0967824 8.28489929,7.90488484 C5.45597696,4.84273582 2.54471684,2.31765844 1.51740097,1.54967229 Z" id="path-36"></path>
        <filter x="-33.0%" y="-31.5%" width="177.9%" height="174.5%" filterUnits="objectBoundingBox" id="filter-37">
            <feOffset dx="1" dy="1" in="SourceAlpha" result="shadowOffsetOuter1"></feOffset>
            <feGaussianBlur stdDeviation="2" in="shadowOffsetOuter1" result="shadowBlurOuter1"></feGaussianBlur>
            <feColorMatrix values="0 0 0 0 0.779211957   0 0 0 0 0.40111947   0 0 0 0 0  0 0 0 0.571787587 0" type="matrix" in="shadowBlurOuter1"></feColorMatrix>
        </filter>
        <linearGradient x1="4.25330813%" y1="37.798106%" x2="83.6056234%" y2="65.2926121%" id="linearGradient-38">
            <stop stop-color="#FFF7C9" offset="0%"></stop>
            <stop stop-color="#FFE258" offset="32.1216143%"></stop>
            <stop stop-color="#FFB400" offset="100%"></stop>
        </linearGradient>
        <filter x="-33.1%" y="-129.7%" width="166.2%" height="359.4%" filterUnits="objectBoundingBox" id="filter-39">
            <feGaussianBlur stdDeviation="2" in="SourceGraphic"></feGaussianBlur>
        </filter>
        <radialGradient cx="50%" cy="50%" fx="50%" fy="50%" r="113.18747%" gradientTransform="translate(0.500000,0.500000),scale(1.000000,0.788779),rotate(-1.367110),scale(1.000000,0.801691),translate(-0.500000,-0.500000)" id="radialGradient-40">
            <stop stop-color="#FFFFFF" offset="0%"></stop>
            <stop stop-color="#D8D8D8" offset="100%"></stop>
        </radialGradient>
        <radialGradient cx="48.0083119%" cy="36.8203806%" fx="48.0083119%" fy="36.8203806%" r="112.928877%" gradientTransform="translate(0.480083,0.368204),scale(1.000000,0.830189),rotate(90.000000),scale(1.000000,0.742045),translate(-0.480083,-0.368204)" id="radialGradient-41">
            <stop stop-color="#FFFFFF" offset="0%"></stop>
            <stop stop-color="#CECECE" offset="100%"></stop>
        </radialGradient>
        <radialGradient cx="50%" cy="50%" fx="50%" fy="50%" r="106.88826%" gradientTransform="translate(0.500000,0.500000),scale(0.869863,1.000000),rotate(-1.517427),scale(1.000000,0.801691),translate(-0.500000,-0.500000)" id="radialGradient-42">
            <stop stop-color="#FFFFFF" offset="0%"></stop>
            <stop stop-color="#D2D2D2" offset="100%"></stop>
        </radialGradient>
        <radialGradient cx="50%" cy="50%" fx="50%" fy="50%" r="129.162145%" gradientTransform="translate(0.500000,0.500000),scale(0.876190,1.000000),rotate(-0.944932),scale(1.000000,0.801691),translate(-0.500000,-0.500000)" id="radialGradient-43">
            <stop stop-color="#FFFFFF" offset="0%"></stop>
            <stop stop-color="#D2D2D2" offset="100%"></stop>
        </radialGradient>
        <path d="M20.0953662,34.9289302 C27.1661726,34.9289302 36.7237524,32.7846968 39.2494729,27.1007392 C40.9547798,23.2630652 38.2706604,20.5795756 37.56076,17.4127328 C36.4511805,12.462935 37.0271771,7.64343414 33.5004839,4.41706423 C30.1921006,1.39041369 27.3614246,0.0503345353 20.0953662,0.0503345353 C12.2243826,0.0503345353 8.66773456,1.38094876 5.28517933,5.21927259 C2.56563171,8.30525456 2.04527813,13.0529083 2.04527813,17.4127328 C2.04527813,20.1179173 -1.05550712,23.404991 0.3788419,27.1007392 C2.77439439,33.2731272 12.7273804,34.9289302 20.0953662,34.9289302 Z" id="path-44"></path>
        <filter x="-5.0%" y="-5.7%" width="110.0%" height="111.5%" filterUnits="objectBoundingBox" id="filter-46">
            <feGaussianBlur stdDeviation="1.5" in="SourceAlpha" result="shadowBlurInner1"></feGaussianBlur>
            <feOffset dx="0" dy="1" in="shadowBlurInner1" result="shadowOffsetInner1"></feOffset>
            <feComposite in="shadowOffsetInner1" in2="SourceAlpha" operator="arithmetic" k2="-1" k3="1" result="shadowInnerInner1"></feComposite>
            <feColorMatrix values="0 0 0 0 1   0 0 0 0 1   0 0 0 0 1  0 0 0 0.5 0" type="matrix" in="shadowInnerInner1"></feColorMatrix>
        </filter>
        <radialGradient cx="71.6876954%" cy="58.5051694%" fx="71.6876954%" fy="58.5051694%" r="55.4687148%" gradientTransform="translate(0.716877,0.585052),scale(1.000000,0.802932),rotate(180.000000),scale(1.000000,1.216249),translate(-0.716877,-0.585052)" id="radialGradient-47">
            <stop stop-color="#595959" offset="0%"></stop>
            <stop stop-color="#000000" offset="100%"></stop>
        </radialGradient>
        <path d="M11.5086003,0.946568758 C18.5560786,7.58855772 21.0549285,13.686888 19.0051499,19.2415595 C17.4586079,23.4325159 11.7047103,26.5178368 5.01211992,26.5178368 C2.67638723,26.5178368 0.727662802,26.2007419 -0.834053375,25.5665522 C-0.640412158,24.4187906 -0.441556018,23.5889972 -0.237484956,23.077172 C1.32513992,19.1579943 1.02423996,15.5925449 1.50852089,13.3250977 C1.9233995,11.3825984 2.21279127,10.1105751 3.03292137,8.04177885 C3.21398439,7.58504339 3.87371724,6.59603757 5.01211992,5.0747614 C6.18683549,3.60986557 7.28432319,2.66943677 8.30458303,2.25347498 C9.32484286,1.83751319 10.3928486,1.40187778 11.5086003,0.946568758 Z" id="path-48"></path>
        <filter x="-12.2%" y="-9.8%" width="124.4%" height="119.6%" filterUnits="objectBoundingBox" id="filter-49">
            <feGaussianBlur stdDeviation="2" in="SourceAlpha" result="shadowBlurInner1"></feGaussianBlur>
            <feOffset dx="-1" dy="0" in="shadowBlurInner1" result="shadowOffsetInner1"></feOffset>
            <feComposite in="shadowOffsetInner1" in2="SourceAlpha" operator="arithmetic" k2="-1" k3="1" result="shadowInnerInner1"></feComposite>
            <feColorMatrix values="0 0 0 0 1   0 0 0 0 1   0 0 0 0 1  0 0 0 0.495465472 0" type="matrix" in="shadowInnerInner1"></feColorMatrix>
        </filter>
        <radialGradient cx="48.0083119%" cy="32.5781468%" fx="48.0083119%" fy="32.5781468%" r="63.4286141%" gradientTransform="translate(0.480083,0.325781),scale(0.341506,1.000000),rotate(90.000000),scale(1.000000,3.175700),translate(-0.480083,-0.325781)" id="radialGradient-50">
            <stop stop-color="#FFFDF8" offset="0%"></stop>
            <stop stop-color="#CECECE" offset="100%"></stop>
        </radialGradient>
        <ellipse id="path-51" cx="20.4343077" cy="31.4286476" rx="21.6474762" ry="7.39274583"></ellipse>
        <filter x="-6.9%" y="-20.3%" width="113.9%" height="140.6%" filterUnits="objectBoundingBox" id="filter-52">
            <feGaussianBlur stdDeviation="2.5" in="SourceAlpha" result="shadowBlurInner1"></feGaussianBlur>
            <feOffset dx="0" dy="1" in="shadowBlurInner1" result="shadowOffsetInner1"></feOffset>
            <feComposite in="shadowOffsetInner1" in2="SourceAlpha" operator="arithmetic" k2="-1" k3="1" result="shadowInnerInner1"></feComposite>
            <feColorMatrix values="0 0 0 0 1   0 0 0 0 1   0 0 0 0 1  0 0 0 0.5 0" type="matrix" in="shadowInnerInner1"></feColorMatrix>
        </filter>
        <linearGradient x1="33.4582717%" y1="50%" x2="100%" y2="50%" id="linearGradient-53">
            <stop stop-color="#F53939" offset="0%"></stop>
            <stop stop-color="#F88760" offset="100%"></stop>
        </linearGradient>
        <linearGradient x1="0%" y1="50%" x2="68.2456001%" y2="50%" id="linearGradient-54">
            <stop stop-color="#F88760" offset="0%"></stop>
            <stop stop-color="#F53939" offset="100%"></stop>
        </linearGradient>
        <linearGradient x1="30.1629251%" y1="39.4192142%" x2="72.769229%" y2="62.0285647%" id="linearGradient-55">
            <stop stop-color="#AF6F27" offset="0%"></stop>
            <stop stop-color="#301911" offset="100%"></stop>
        </linearGradient>
        <linearGradient x1="72.769229%" y1="62.0285647%" x2="30.1629251%" y2="39.4192142%" id="linearGradient-56">
            <stop stop-color="#301911" offset="0%"></stop>
            <stop stop-color="#AF6F27" offset="100%"></stop>
        </linearGradient>
        <path d="M11.4555242,9.13419737 C9.84959235,11.9768029 5.6793347,11.9768029 3.67608091,10.999444 C1.06569168,9.72587239 -0.213997562,7.24278517 0.0292342912,4.83988831 C1.0235479,4.61782421 1.68204742,4.44532076 2.00473286,4.32237796 C3.00641121,3.9407396 3.65902138,3.59473403 4.29528825,3.22058822 C5.01275295,2.79869541 5.84881148,2.27889379 6.88406851,1.34805257 C7.12548519,1.13098512 7.5271242,0.7042171 8.08898555,0.0677484994 C8.22469334,0.123493048 8.36005334,0.184720844 8.49487594,0.251580239 C11.5088415,1.74681047 13.1395538,6.15511036 11.4555242,9.13419737 Z" id="path-57"></path>
        <radialGradient cx="50%" cy="50%" fx="50%" fy="50%" r="57.0942983%" gradientTransform="translate(0.500000,0.500000),rotate(9.344040),scale(1.000000,1.070890),translate(-0.500000,-0.500000)" id="radialGradient-59">
            <stop stop-color="#2F140B" offset="0%"></stop>
            <stop stop-color="#866236" offset="100%"></stop>
        </radialGradient>
        <path d="M11.4555242,9.13419737 C9.84959235,11.9768029 5.6793347,11.9768029 3.67608091,10.999444 C1.06569168,9.72587239 -0.213997562,7.24278517 0.0292342912,4.83988831 C1.0235479,4.61782421 1.68204742,4.44532076 2.00473286,4.32237796 C3.00641121,3.9407396 3.65902138,3.59473403 4.29528825,3.22058822 C5.01275295,2.79869541 5.84881148,2.27889379 6.88406851,1.34805257 C7.12548519,1.13098512 7.5271242,0.7042171 8.08898555,0.0677484994 C8.22469334,0.123493048 8.36005334,0.184720844 8.49487594,0.251580239 C11.5088415,1.74681047 13.1395538,6.15511036 11.4555242,9.13419737 Z" id="path-60"></path>
        <radialGradient cx="-5.40968694%" cy="56.472276%" fx="-5.40968694%" fy="56.472276%" r="220.892203%" gradientTransform="translate(-0.054097,0.564723),scale(0.578125,1.000000),rotate(3.991277),scale(1.000000,0.590538),translate(0.054097,-0.564723)" id="radialGradient-62">
            <stop stop-color="#FFFFFF" offset="0%"></stop>
            <stop stop-color="#C6EDFF" offset="42.0957958%"></stop>
            <stop stop-color="#9DDBFF" offset="100%"></stop>
        </radialGradient>
        <path d="M34.7316993,29.1755446 C34.5855505,29.1559979 34.4419653,29.1041567 34.3017988,29.0531653 C34.2394077,29.0302191 34.196674,29.0251199 34.1359925,29.0599641 C33.6659226,29.3336184 33.0907289,29.1610973 32.8514212,28.6800771 C32.6163862,28.2092555 32.8274904,27.6322039 33.3317475,27.4486329 C33.5026822,27.3865932 33.5804575,27.2948082 33.6565231,27.1443836 C34.1385584,26.1959436 35.4744123,26.1228551 36.0752481,27.0084062 C36.1239644,27.0797942 36.1572967,27.1001912 36.2470374,27.0763947 C36.8470158,26.9166213 37.439306,27.2820605 37.5820356,27.893106 C37.7145099,28.4599612 37.3307619,29.0523142 36.7393256,29.1687421 C36.381218,29.2384305 36.0538753,29.1517449 35.7726918,28.8933878 C35.456464,29.1288024 35.110324,29.2265367 34.7316993,29.1755446 Z" id="path-63"></path>
        <filter x="-41.2%" y="-35.6%" width="182.4%" height="242.6%" filterUnits="objectBoundingBox" id="filter-64">
            <feOffset dx="0" dy="1" in="SourceAlpha" result="shadowOffsetOuter1"></feOffset>
            <feGaussianBlur stdDeviation="0.5" in="shadowOffsetOuter1" result="shadowBlurOuter1"></feGaussianBlur>
            <feColorMatrix values="0 0 0 0 0.652867828   0 0 0 0 0.847852272   0 0 0 0 0.951313406  0 0 0 1 0" type="matrix" in="shadowBlurOuter1"></feColorMatrix>
        </filter>
        <filter x="-41.2%" y="-35.6%" width="182.4%" height="242.6%" filterUnits="objectBoundingBox" id="filter-65">
            <feGaussianBlur stdDeviation="0.5" in="SourceAlpha" result="shadowBlurInner1"></feGaussianBlur>
            <feOffset dx="-1" dy="0" in="shadowBlurInner1" result="shadowOffsetInner1"></feOffset>
            <feComposite in="shadowOffsetInner1" in2="SourceAlpha" operator="arithmetic" k2="-1" k3="1" result="shadowInnerInner1"></feComposite>
            <feColorMatrix values="0 0 0 0 0.475832437   0 0 0 0 0.806507454   0 0 0 0 0.994650136  0 0 0 1 0" type="matrix" in="shadowInnerInner1"></feColorMatrix>
        </filter>
        <radialGradient cx="0%" cy="50%" fx="0%" fy="50%" r="195.121876%" gradientTransform="translate(0.000000,0.500000),scale(0.578125,1.000000),rotate(3.945076),scale(1.000000,0.590538),translate(-0.000000,-0.500000)" id="radialGradient-66">
            <stop stop-color="#FFFFFF" offset="0%"></stop>
            <stop stop-color="#C5EDFF" offset="36.0881424%"></stop>
            <stop stop-color="#9DDBFF" offset="100%"></stop>
        </radialGradient>
        <path d="M10.7716205,29.1755446 C10.6254717,29.1559979 10.4818865,29.1041567 10.34172,29.0531653 C10.2793289,29.0302191 10.2365952,29.0251199 10.1759137,29.0599641 C9.70584379,29.3336184 9.13065015,29.1610973 8.89134243,28.6800771 C8.65630746,28.2092555 8.86741161,27.6322039 9.37166867,27.4486329 C9.5426034,27.3865932 9.62037869,27.2948082 9.69644432,27.1443836 C10.1784797,26.1959436 11.5143335,26.1228551 12.1151693,27.0084062 C12.1638856,27.0797942 12.1972179,27.1001912 12.2869586,27.0763947 C12.886937,26.9166213 13.4792273,27.2820605 13.6219568,27.893106 C13.7544311,28.4599612 13.3706831,29.0523142 12.7792468,29.1687421 C12.4211392,29.2384305 12.0937965,29.1517449 11.8126131,28.8933878 C11.4963852,29.1288024 11.1502452,29.2265367 10.7716205,29.1755446 Z" id="path-67"></path>
        <filter x="-41.2%" y="-35.6%" width="182.4%" height="242.6%" filterUnits="objectBoundingBox" id="filter-68">
            <feOffset dx="0" dy="1" in="SourceAlpha" result="shadowOffsetOuter1"></feOffset>
            <feGaussianBlur stdDeviation="0.5" in="shadowOffsetOuter1" result="shadowBlurOuter1"></feGaussianBlur>
            <feColorMatrix values="0 0 0 0 0.652867828   0 0 0 0 0.847852272   0 0 0 0 0.951313406  0 0 0 1 0" type="matrix" in="shadowBlurOuter1"></feColorMatrix>
        </filter>
        <filter x="-41.2%" y="-35.6%" width="182.4%" height="242.6%" filterUnits="objectBoundingBox" id="filter-69">
            <feGaussianBlur stdDeviation="0.5" in="SourceAlpha" result="shadowBlurInner1"></feGaussianBlur>
            <feOffset dx="-1" dy="0" in="shadowBlurInner1" result="shadowOffsetInner1"></feOffset>
            <feComposite in="shadowOffsetInner1" in2="SourceAlpha" operator="arithmetic" k2="-1" k3="1" result="shadowInnerInner1"></feComposite>
            <feColorMatrix values="0 0 0 0 0.475832437   0 0 0 0 0.806507454   0 0 0 0 0.994650136  0 0 0 1 0" type="matrix" in="shadowInnerInner1"></feColorMatrix>
        </filter>
        <filter x="-51.9%" y="-74.1%" width="203.7%" height="248.2%" filterUnits="objectBoundingBox" id="filter-70">
            <feOffset dx="0" dy="1" in="SourceAlpha" result="shadowOffsetOuter1"></feOffset>
            <feGaussianBlur stdDeviation="0.5" in="shadowOffsetOuter1" result="shadowBlurOuter1"></feGaussianBlur>
            <feColorMatrix values="0 0 0 0 0.864923007   0 0 0 0 0.864923007   0 0 0 0 0.864923007  0 0 0 1 0" type="matrix" in="shadowBlurOuter1" result="shadowMatrixOuter1"></feColorMatrix>
            <feMerge>
                <feMergeNode in="shadowMatrixOuter1"></feMergeNode>
                <feMergeNode in="SourceGraphic"></feMergeNode>
            </feMerge>
        </filter>
        <path d="M6.97338231,0.227469102 L4.19906342,1.3320746 C4.16361687,1.37197721 4.17088074,1.41011738 4.17088074,1.41011738 C4.17794753,1.51368792 4.34355245,1.50683095 4.34355245,1.50683095 C4.51760373,1.50115811 5.16583355,1.55827199 5.16583355,1.55827199 C5.40694892,1.58377221 5.30942164,1.92450027 5.30942164,1.92450027 L4.36275384,4.85267418 L6.13206875,4.85267418 C6.13722103,2.55966495 6.26715417,2.11679834 6.26715417,2.11679834 C6.31498871,1.67886103 6.97571914,0.265912194 6.97571914,0.265912194 L6.97338231,0.227469102 Z" id="path-71"></path>
        <filter x="-71.3%" y="-43.2%" width="242.6%" height="186.5%" filterUnits="objectBoundingBox" id="filter-72">
            <feGaussianBlur stdDeviation="1.5" in="SourceAlpha" result="shadowBlurInner1"></feGaussianBlur>
            <feOffset dx="0" dy="1" in="shadowBlurInner1" result="shadowOffsetInner1"></feOffset>
            <feComposite in="shadowOffsetInner1" in2="SourceAlpha" operator="arithmetic" k2="-1" k3="1" result="shadowInnerInner1"></feComposite>
            <feColorMatrix values="0 0 0 0 1   0 0 0 0 1   0 0 0 0 1  0 0 0 0.5 0" type="matrix" in="shadowInnerInner1"></feColorMatrix>
        </filter>
        <path d="M2.4602721,0.0368139311 C1.53783607,-0.133239884 0.210141787,0.275515889 0.0280704767,1.47884454 C-0.154029189,2.68214523 0.609445353,3.11190946 0.609445353,3.11190946 C0.919513843,3.32714125 1.32902543,3.26039533 1.32902543,3.26039533 L2.01262224,2.29683165 C2.01262224,2.29683165 1.97590174,2.29389438 1.68823417,2.26583648 C1.4005666,2.23777858 1.33690828,1.89009 1.33690828,1.89009 C1.30237116,1.73536593 1.38054755,1.13185532 1.98542922,1.14041535 C2.59031089,1.14903134 2.43188815,1.89042569 2.43188815,1.89042569 C2.30902333,3.00409774 0.318998937,4.85267418 0.318998937,4.85267418 L2.12669682,4.85267418 C2.51599086,4.37250084 3.74557476,2.72514123 3.79009305,1.460074 C3.83461135,0.194978805 2.4602721,0.0368139311 2.4602721,0.0368139311 Z" id="path-73"></path>
        <filter x="-52.8%" y="-41.2%" width="205.5%" height="182.4%" filterUnits="objectBoundingBox" id="filter-75">
            <feGaussianBlur stdDeviation="1.5" in="SourceAlpha" result="shadowBlurInner1"></feGaussianBlur>
            <feOffset dx="0" dy="1" in="shadowBlurInner1" result="shadowOffsetInner1"></feOffset>
            <feComposite in="shadowOffsetInner1" in2="SourceAlpha" operator="arithmetic" k2="-1" k3="1" result="shadowInnerInner1"></feComposite>
            <feColorMatrix values="0 0 0 0 1   0 0 0 0 1   0 0 0 0 1  0 0 0 0.5 0" type="matrix" in="shadowInnerInner1"></feColorMatrix>
        </filter>
        <radialGradient cx="50%" cy="50%" fx="50%" fy="50%" r="113.195082%" gradientTransform="translate(0.500000,0.500000),scale(1.000000,0.709398),rotate(-1.520020),scale(1.000000,0.801691),translate(-0.500000,-0.500000)" id="radialGradient-76">
            <stop stop-color="#FFFFFF" offset="0%"></stop>
            <stop stop-color="#D2D2D2" offset="100%"></stop>
        </radialGradient>
        <linearGradient x1="26.0416322%" y1="96.2262639%" x2="42.6220708%" y2="-20.0412423%" id="linearGradient-77">
            <stop stop-color="#301911" offset="0%"></stop>
            <stop stop-color="#AF6F27" offset="100%"></stop>
        </linearGradient>
        <filter x="-2756.9%" y="-96.5%" width="5613.7%" height="293.0%" filterUnits="objectBoundingBox" id="filter-78">
            <feGaussianBlur stdDeviation="1" in="SourceGraphic"></feGaussianBlur>
        </filter>
        <linearGradient x1="108.574641%" y1="50%" x2="0%" y2="50%" id="linearGradient-79">
            <stop stop-color="#CACACA" stop-opacity="0.215280813" offset="0%"></stop>
            <stop stop-color="#CCCCCC" offset="48.8800195%"></stop>
            <stop stop-color="#CFCFCF" stop-opacity="0.20388986" offset="100%"></stop>
        </linearGradient>
        <filter x="-64.6%" y="-342.3%" width="229.3%" height="797.3%" filterUnits="objectBoundingBox" id="filter-80">
            <feGaussianBlur stdDeviation="1" in="SourceGraphic"></feGaussianBlur>
        </filter>
        <linearGradient x1="107.934679%" y1="43.1959685%" x2="-13.6180123%" y2="43.1927711%" id="linearGradient-81">
            <stop stop-color="#E95100" offset="0%"></stop>
            <stop stop-color="#FD5E02" offset="27.4702006%"></stop>
            <stop stop-color="#FF8404" offset="50.2561642%"></stop>
            <stop stop-color="#FD6002" offset="75.7684291%"></stop>
            <stop stop-color="#E24E00" offset="100%"></stop>
        </linearGradient>
        <path d="M17.8592526,38.726699 C17.2254419,39.3869166 16.9085366,39.8077038 16.9085366,39.9890607 C17.1448961,40.2707614 17.5428755,40.7979383 18.2371769,41.154217 C18.037705,41.7564753 17.9117302,42.1727801 17.8592526,42.4031314 C17.6810126,43.1855187 17.6815219,43.7153814 17.6815219,43.9650096 C17.6815219,44.5048173 19.4680674,44.5048173 19.6702726,44.3241003 C19.7716411,44.2335043 19.8688086,43.6726153 19.8177246,42.672891 C19.8064917,42.4530604 19.757341,42.0576394 19.6702726,41.4866281 C21.3378249,41.7490671 23.0023176,41.7705319 24.6637508,41.5510227 C27.2355927,41.2112299 29.1356912,40.343943 29.7226294,39.6901172 C29.5201046,39.4419626 29.3738008,39.2594603 29.283718,39.1426101 C29.2010519,39.0353804 29.067503,38.8777595 28.8830713,38.6697474 C26.6670207,38.9303284 24.8628093,39.0606189 23.4704369,39.0606189 C22.0780646,39.0606189 20.2076698,38.9493123 17.8592526,38.726699 Z" id="path-82"></path>
        <filter x="-19.5%" y="-43.4%" width="139.0%" height="186.8%" filterUnits="objectBoundingBox" id="filter-83">
            <feGaussianBlur stdDeviation="1.5" in="SourceAlpha" result="shadowBlurInner1"></feGaussianBlur>
            <feOffset dx="2" dy="0" in="shadowBlurInner1" result="shadowOffsetInner1"></feOffset>
            <feComposite in="shadowOffsetInner1" in2="SourceAlpha" operator="arithmetic" k2="-1" k3="1" result="shadowInnerInner1"></feComposite>
            <feColorMatrix values="0 0 0 0 0.817680027   0 0 0 0 0.283418974   0 0 0 0 0  0 0 0 0.625874126 0" type="matrix" in="shadowInnerInner1" result="shadowMatrixInner1"></feColorMatrix>
            <feGaussianBlur stdDeviation="1.5" in="SourceAlpha" result="shadowBlurInner2"></feGaussianBlur>
            <feOffset dx="-2" dy="0" in="shadowBlurInner2" result="shadowOffsetInner2"></feOffset>
            <feComposite in="shadowOffsetInner2" in2="SourceAlpha" operator="arithmetic" k2="-1" k3="1" result="shadowInnerInner2"></feComposite>
            <feColorMatrix values="0 0 0 0 0.883378623   0 0 0 0 0.306190997   0 0 0 0 0  0 0 0 0.733173077 0" type="matrix" in="shadowInnerInner2" result="shadowMatrixInner2"></feColorMatrix>
            <feMerge>
                <feMergeNode in="shadowMatrixInner1"></feMergeNode>
                <feMergeNode in="shadowMatrixInner2"></feMergeNode>
            </feMerge>
        </filter>
        <linearGradient x1="26.0416322%" y1="75.7725181%" x2="42.6220708%" y2="10.9499226%" id="linearGradient-84">
            <stop stop-color="#301911" offset="0%"></stop>
            <stop stop-color="#AF6F27" offset="100%"></stop>
        </linearGradient>
        <radialGradient cx="50%" cy="50%" fx="50%" fy="50%" r="233.620551%" gradientTransform="translate(0.500000,0.500000),scale(0.484375,1.000000),rotate(-0.522409),scale(1.000000,0.801691),translate(-0.500000,-0.500000)" id="radialGradient-85">
            <stop stop-color="#FFFFFF" offset="0%"></stop>
            <stop stop-color="#D8D8D8" offset="100%"></stop>
        </radialGradient>
        <path d="M30.5370827,52.0072892 L29.8394465,53.0912615 C30.3081966,53.6105172 30.9414403,53.7375879 31.7391774,53.4724736 C32.3388458,53.273184 32.8405552,52.5119009 33.6467768,51.8356413 C33.8243053,51.6867303 34.1727532,51.529504 34.6921207,51.3639626 C34.275248,51.2205072 33.9268001,51.2205072 33.6467768,51.3639626 C32.8756128,51.7590283 32.4579344,52.3168026 32.0054809,52.3869215 C31.2839511,52.4987405 30.794485,52.3721964 30.5370827,52.0072892 Z" id="path-86"></path>
        <filter x="-72.1%" y="-148.9%" width="244.3%" height="397.8%" filterUnits="objectBoundingBox" id="filter-87">
            <feGaussianBlur stdDeviation="3" in="SourceAlpha" result="shadowBlurInner1"></feGaussianBlur>
            <feOffset dx="0" dy="1" in="shadowBlurInner1" result="shadowOffsetInner1"></feOffset>
            <feComposite in="shadowOffsetInner1" in2="SourceAlpha" operator="arithmetic" k2="-1" k3="1" result="shadowInnerInner1"></feComposite>
            <feColorMatrix values="0 0 0 0 0.629698822   0 0 0 0 0.629698822   0 0 0 0 0.629698822  0 0 0 0.5 0" type="matrix" in="shadowInnerInner1"></feColorMatrix>
        </filter>
    </defs>
    <g id="吉祥物" stroke="none" stroke-width="1" fill="none" fill-rule="evenodd">
        <g id="分组-17" transform="translate(32.000000, 37.000000)">
            <g id="失败" transform="translate(10.786663, 0.000000)">
                <ellipse id="椭圆形" fill-opacity="0.6" fill="url(#radialGradient-1)" filter="url(#filter-2)" cx="72.4558965" cy="72.4558965" rx="71.697196" ry="72.4558965"></ellipse>
                <path d="M46.5896014,106.856054 C67.3699517,106.856054 84.215754,85.6529658 84.215754,59.497631 C84.215754,33.3422961 67.3699517,12.1392078 46.5896014,12.1392078 C25.8092512,12.1392078 14.8229338,34.3370304 8.96344887,59.497631 C6.22976805,71.2360435 2.3328013,93.4608092 8.96344887,101.99878 C15.7950074,110.795454 36.0443626,106.856054 46.5896014,106.856054 Z" id="椭圆形" fill="url(#linearGradient-3)"></path>
                <path d="M97.5484091,116.081174 C118.32043,116.081174 140.512291,109.200222 135.96832,84.5097453 C131.424349,59.8192686 120.746951,24.2784156 99.9749298,24.2784156 C79.202909,24.2784156 59.9373385,42.5694023 59.9373385,68.7240307 C59.9373385,94.878659 76.7763884,116.081174 97.5484091,116.081174 Z" id="椭圆形-copy-3" fill="url(#linearGradient-4)"></path>
                <g id="云" fill-rule="nonzero" filter="url(#filter-6)">
                    <use fill="#FFFFFF" xlink:href="#path-5"></use>
                    <use fill="black" fill-opacity="1" filter="url(#filter-7)" xlink:href="#path-5"></use>
                </g>
                <ellipse id="椭圆形" fill="url(#linearGradient-8)" cx="71.3178458" cy="109.63222" rx="71.3178458" ry="19.3468624"></ellipse>
                <g id="树-copy-3" transform="translate(97.113662, 81.939653)">
                    <rect id="矩形" fill="url(#linearGradient-9)" x="4.55220292" y="7.58700487" width="1.51740097" height="6.82830438"></rect>
                    <polygon id="矩形-copy-5" fill="url(#linearGradient-10)" opacity="0.89811" filter="url(#filter-11)" transform="translate(15.000036, 14.417676) rotate(91.000000) translate(-15.000036, -14.417676) " points="14.6519752 3.95990357 15.3469276 3.95994252 15.3480963 24.8754491 14.6531439 24.8754101"></polygon>
                    <polygon id="路径-4" fill="#F3A96B" points="5.31090341 0 5.31090341 9.86310633 8.34570535 7.52031255"></polygon>
                    <polygon id="路径-4-copy" fill="#FFCA4A" transform="translate(2.655452, 4.931553) scale(-1, 1) translate(-2.655452, -4.931553) " points="0 0 9.20486782e-14 9.86310633 5.31090341 7.54144338"></polygon>
                </g>
                <g id="树-copy-7" transform="translate(6.069604, 82.698353)">
                    <rect id="矩形" fill="url(#linearGradient-12)" x="5.31090341" y="9.86310633" width="1.51740097" height="7.58700487"></rect>
                    <polygon id="矩形-copy-5" fill="url(#linearGradient-13)" opacity="0.89811" filter="url(#filter-14)" transform="translate(17.647101, 17.301212) rotate(91.000000) translate(-17.647101, -17.301212) " points="17.2337245 4.99801748 18.0676624 4.99777798 18.0604773 29.6044057 17.2265393 29.6046452"></polygon>
                    <polygon id="路径-4" fill="#F3A96B" points="6.06960389 0 6.06960389 11.3805073 9.86310633 8.67728371"></polygon>
                    <polygon id="路径-4-copy" fill="#FFCA4A" transform="translate(3.034802, 5.690254) scale(-1, 1) translate(-3.034802, -5.690254) " points="0 0 1.05198489e-13 11.3805073 6.06960389 8.70166544"></polygon>
                </g>
                <g id="云" fill-rule="nonzero" filter="url(#filter-16)">
                    <use fill="#FFFFFF" xlink:href="#path-15"></use>
                    <use fill="black" fill-opacity="1" filter="url(#filter-17)" xlink:href="#path-15"></use>
                </g>
                <path d="M135.048687,106.218068 C133.134921,99.5494046 72.0282607,88.5116236 79.5356043,90.2853579 C87.0429479,92.0590922 62.2134399,84.7152248 62.2134399,92.0590922 L82.6239707,116.081174 L135.048687,106.218068 Z" id="阴影" fill="url(#linearGradient-18)"></path>
                <g id="树-copy-5" transform="translate(107.735469, 99.389764)">
                    <rect id="矩形" fill="url(#linearGradient-19)" x="7.58700487" y="13.6566088" width="2.27610146" height="12.1392078"></rect>
                    <polygon id="矩形-copy-5" fill="url(#linearGradient-20)" opacity="0.840634301" filter="url(#filter-21)" transform="translate(17.231350, 25.230934) rotate(91.000000) translate(-17.231350, -25.230934) " points="16.7757244 15.7227424 17.9918807 15.7222087 17.6869747 34.7391247 16.4708185 34.7396583"></polygon>
                    <polygon id="路径-4" fill="#F3A96B" points="8.34570535 0 8.34570535 16.6914107 14.4153092 12.7266828"></polygon>
                    <polygon id="路径-4-copy" fill="#FFCA4A" transform="translate(4.552203, 8.345705) scale(-1, 1) translate(-4.552203, -8.345705) " points="0 0 1.57797734e-13 16.6914107 9.10440584 12.7624426"></polygon>
                </g>
                <g id="分组-6" transform="translate(28.830618, 40.969826)">
                    <path d="M58.7867552,2.27610146 C60.4436095,2.27610146 61.7867552,3.61924721 61.7867552,5.27610146 L61.7867552,32.2578854 C61.7867552,32.7090823 61.687149,33.1370149 61.5087259,33.5208937 L61.5077351,54.2942574 L51.175868,41.79172 L46.718889,47.4218629 L44.6170755,46.0176883 L40.7524124,38.7397747 L36.6433259,40.738112 L32.8241889,32.3152983 L27.3702107,43.0085415 L24.9498966,41.79172 L22.4526235,33.3828214 L16.8082501,35.8360344 L10.7396039,26.7931015 L10.6976039,26.7851015 L8.30004837,28.5493598 C7.13821708,28.193693 6.43210917,27.6495162 6.18172464,26.9168293 L6.13772405,26.7677785 C6.00372435,26.2322489 6.06741856,25.4831409 6.32880669,24.5204543 C6.2053075,24.1895036 6.13772405,23.8328947 6.13772405,23.4627083 L6.13772405,5.27610146 C6.13772405,3.61924721 7.4808698,2.27610146 9.13772405,2.27610146 L58.7867552,2.27610146 Z" id="合并形状" fill="#CC7921" fill-rule="nonzero"></path>
                    <g id="合并形状" fill-rule="nonzero">
                        <use fill="black" fill-opacity="1" filter="url(#filter-24)" xlink:href="#path-23"></use>
                        <use fill="url(#linearGradient-22)" xlink:href="#path-23"></use>
                    </g>
                    <path d="M7.65512502,38.4421627 L12.2643291,34.9002224 L18.1744815,45.5341197 L22.2719774,42.1076757 L23.6028803,42.1076757 L25.361125,50.3772224 L26.785125,50.9512224 L32.7450362,41.9410674 L34.3339568,42.1076757 L36.896678,48.7455699 L41.172584,48.0185126 L42.9002462,48.0185126 L45.091575,57.3556245 L51.8782932,50.7901753 C55.3468889,55.5492459 57.638109,59.0768846 58.7519533,61.3730914 C59.1426435,62.178505 61.3130909,64.2929864 61.4919347,64.9306265 C61.5468048,65.1262576 61.5472068,65.2997392 61.4931404,65.4510715 L61.4919347,71.4737799 C61.4919347,73.1306341 60.1487889,74.4737799 58.4919347,74.4737799 C58.3851266,74.4737799 58.2783947,74.4680759 58.1721949,74.4566923 L10.3353853,69.3290426 C8.81102789,69.1656461 7.65512502,67.8792199 7.65512502,66.3461302 L7.65512502,38.4421627 Z" id="合并形状" fill="#CC7921" fill-rule="nonzero"></path>
                    <g id="合并形状" fill-rule="nonzero">
                        <use fill="black" fill-opacity="1" filter="url(#filter-27)" xlink:href="#path-26"></use>
                        <use fill="url(#linearGradient-25)" xlink:href="#path-26"></use>
                    </g>
                    <g id="矩形">
                        <use fill="black" fill-opacity="1" filter="url(#filter-30)" xlink:href="#path-29"></use>
                        <use fill="url(#linearGradient-28)" fill-rule="evenodd" xlink:href="#path-29"></use>
                    </g>
                    <path d="M1.94461599,7.02562907 L32.8448384,6.1696116 C33.9489843,6.13902385 34.8688676,7.00931469 34.8994554,8.11346059 C34.8999667,8.1319175 34.9002224,8.15038061 34.9002224,8.1688446 L34.9002224,18.4833234 C34.9002224,19.5878929 34.0047919,20.4833234 32.9002224,20.4833234 C32.8427418,20.4833234 32.7852879,20.4808454 32.7280208,20.4758963 L1.8277984,17.8054455 C0.793829681,17.7160881 1.2709663e-16,16.8506953 0,15.8128726 L0,9.02486207 C3.11460029e-16,7.94186262 0.862031864,7.05561949 1.94461599,7.02562907 Z" id="矩形" fill="url(#linearGradient-31)"></path>
                    <rect id="矩形" fill="url(#linearGradient-32)" x="1.53232474" y="8.29856167" width="22.7610146" height="1.13805073"></rect>
                    <circle id="椭圆形" fill="url(#linearGradient-33)" cx="28.8306185" cy="11.4305697" r="2.27610146"></circle>
                    <rect id="矩形-copy-9" fill="url(#linearGradient-32)" x="1.53232474" y="12.0920641" width="22.7610146" height="1.13805073"></rect>
                    <polygon id="矩形-copy-10" fill="url(#linearGradient-34)" points="1.55281711 15.1312826 31.12833 16.6405437 31.1011511 17.7779012 1.52563817 16.2686401"></polygon>
                    <g id="分组-5" transform="translate(39.452425, 5.310903)" fill-rule="nonzero">
                        <g id="路径">
                            <use fill="black" fill-opacity="1" filter="url(#filter-37)" xlink:href="#path-36"></use>
                            <use fill="url(#linearGradient-35)" xlink:href="#path-36"></use>
                        </g>
                        <path d="M6.7675084,7.68484986 C3.93857598,4.55211725 1.02731587,1.96883312 0,1.18314375 L0.620137559,0 C1.81024271,0.607924489 5.07106184,3.01269361 8.3457104,6.1342606 C11.6207456,3.01307386 14.8811882,0.607921032 16.0712832,0 L16.6914107,1.18314375 C15.6641032,1.96882793 12.7528448,4.55211725 9.9239124,7.68484986 C13.160398,10.9503254 16.0888735,14.3839419 16.6914107,14.9814751 C16.3527172,14.9980199 15.9848333,15.1299933 15.5873823,15.3766255 C15.189933,15.622874 14.6233228,16.3142899 13.8875515,17.4501112 C13.4448178,16.5139851 11.1330957,12.8891479 8.34570535,9.51054706 C5.55868492,12.8895281 3.24659965,16.5139799 2.8038592,17.4501112 C2.06808964,16.3142934 1.50148105,15.6232542 1.10402841,15.3762453 C0.706579122,15.1299968 0.3386935,14.9980248 0,14.9814786 C0.602537218,14.3839436 3.53101268,10.9503288 6.76749831,7.68485331 L6.7675084,7.68484986 Z" id="路径" fill="url(#linearGradient-38)"></path>
                    </g>
                </g>
            </g>
            <g id="分组-3" transform="translate(0.000000, 60.748713)">
                <ellipse id="椭圆形" fill="#E4C59F" filter="url(#filter-39)" cx="23.315583" cy="57.8908866" rx="9.06085258" ry="2.31260254"></ellipse>
                <path d="M27.3580153,56.4989718 L26.4270831,56.1913822 C27.4872194,55.5410688 28.5076006,54.6189629 29.3948022,53.5530059 C31.1433645,51.4529114 32.3764356,48.7966366 32.3764356,46.5725783 C32.3764356,42.1244615 27.6263623,35.48518 23.4931558,35.48518 C19.3599494,35.48518 14.2547304,42.1244615 14.2547304,46.5725783 C14.2547304,48.8032657 15.4937647,51.4688212 17.2502781,53.5722302 C18.1368171,54.632884 19.1552105,55.5510124 20.2126965,56.1973483 L19.2996541,56.4989718 C19.2996541,56.4989718 16.9050712,57.1439818 17.2734686,57.8811362 C17.6418659,58.6182906 23.0081435,58.5559772 23.136685,58.2185567 C23.2652265,57.8811362 23.2652265,57.5067164 23.315583,57.5067164 C23.3659395,57.5067164 23.3659395,57.8811362 23.5203218,58.2185567 C23.6747042,58.5559772 29.0151409,58.6163018 29.3835382,57.8811362 C29.7519356,57.1459706 27.3580153,56.4989718 27.3580153,56.4989718 Z" id="路径" fill="url(#radialGradient-40)"></path>
                <path d="M23.2776715,50.4981407 C27.0474541,50.4981407 28.4221517,47.8695229 28.2708434,44.5154196 C28.1195352,41.1613163 25.9386368,38.4422783 23.2776715,38.4422783 C20.6167062,38.4422783 18.4358078,41.1613163 18.2844995,44.5154196 C18.1331913,47.8695229 19.5078888,50.4981407 23.2776715,50.4981407 Z" id="肚子" fill="url(#radialGradient-41)"></path>
                <g id="分组-7">
                    <path d="M10.4707347,7.45971957 C9.51625988,7.08084567 8.4589257,7.81737654 8.1745497,8.25611252 C7.32822857,9.5601965 5.57583709,12.9109573 0.404883026,12.3941733 C0.276501134,12.3816393 0.150902584,12.4371649 0.0736075607,12.5406261 C-0.00368746289,12.6440874 -0.0214629311,12.7804713 0.0267234483,12.9003488 C0.538751516,14.1627567 2.20719157,17.0535646 6.74435018,16.983094 C6.89747693,16.9811496 7.03349874,16.8846691 7.08620644,16.7406147 C7.51352676,15.5676211 10.7324211,9.21845224 10.8254483,9.06538718 C11.4017635,8.11365593 10.8254483,7.47866327 10.4730036,7.45971957" id="路径" fill="url(#radialGradient-42)"></path>
                    <path d="M45.6526225,7.45971957 C44.6981477,7.08084567 43.6408135,7.81737654 43.3564375,8.25611252 C42.5101164,9.5601965 40.7577249,12.9109573 35.5867709,12.3941733 C35.458389,12.3816393 35.3327904,12.4371649 35.2554954,12.5406261 C35.1782004,12.6440874 35.1604249,12.7804713 35.2086113,12.9003488 C35.7206394,14.1627567 37.3890794,17.0535646 41.926238,16.983094 C42.0793648,16.9811496 42.2153866,16.8846691 42.2680943,16.7406147 C42.6954146,15.5676211 45.9143089,9.21845224 46.0073362,9.06538718 C46.5836514,8.11365593 46.0073362,7.47866327 45.6548914,7.45971957" id="路径" fill="url(#radialGradient-42)" transform="translate(40.716969, 12.169597) scale(-1, 1) translate(-40.716969, -12.169597) "></path>
                    <g id="face" transform="translate(3.412037, 4.094444)">
                        <mask id="mask-45" fill="white">
                            <use xlink:href="#path-44"></use>
                        </mask>
                        <g id="Mask">
                            <use fill="url(#radialGradient-43)" fill-rule="evenodd" xlink:href="#path-44"></use>
                            <use fill="black" fill-opacity="1" filter="url(#filter-46)" xlink:href="#path-44"></use>
                        </g>
                        <g id="路径-2" mask="url(#mask-45)">
                            <use fill="url(#radialGradient-47)" fill-rule="evenodd" xlink:href="#path-48"></use>
                            <use fill="black" fill-opacity="1" filter="url(#filter-49)" xlink:href="#path-48"></use>
                        </g>
                        <g id="椭圆形" mask="url(#mask-45)">
                            <use fill="url(#radialGradient-50)" fill-rule="evenodd" xlink:href="#path-51"></use>
                            <use fill="black" fill-opacity="1" filter="url(#filter-52)" xlink:href="#path-51"></use>
                        </g>
                        <circle id="椭圆形" fill="url(#linearGradient-53)" mask="url(#mask-45)" cx="0.947787927" cy="24.9836897" r="3.67741716"></circle>
                        <circle id="椭圆形" fill="url(#linearGradient-54)" mask="url(#mask-45)" cx="38.7076589" cy="24.9836897" r="3.67741716"></circle>
                    </g>
                    <path d="M36.4024452,8.32837184 C36.389053,8.44666037 36.2932693,8.5391033 36.1736561,8.54918131 C35.3431515,8.61950761 32.2445839,8.65958604 31.6970152,5.41020838 C31.6854484,5.33629076 31.7078285,5.26111761 31.7580256,5.20527905 C32.0096937,4.92473003 32.7341926,3.78665384 32.3025438,0.280169269 C32.2908185,0.186146304 32.3337996,0.0936484604 32.4134963,0.0413929772 C32.4931931,-0.0108625059 32.5958589,-0.0138623468 32.6785206,0.0336491115 C33.8567847,0.70817666 36.9698423,3.01306452 36.4024452,8.32837184 Z" id="路径" fill="url(#linearGradient-55)" fill-rule="nonzero"></path>
                    <path d="M10.0768813,8.32252243 C10.0896957,8.44421866 10.1881097,8.53959497 10.3110814,8.54949385 C11.1502349,8.61985499 14.2345054,8.65314413 14.7822438,5.41274884 C14.7945376,5.33663349 14.7715543,5.25907952 14.7196887,5.20166542 C14.4664169,4.91643801 13.7493221,3.77628491 14.1757647,0.290760494 C14.1889791,0.193595676 14.1451824,0.0974609103 14.0629256,0.0430755288 C13.9806687,-0.0113098528 13.8743456,-0.0144289562 13.7889912,0.0350393619 C12.6012076,0.718223332 9.51235984,3.02652266 10.0768813,8.32252243 Z" id="路径" fill="url(#linearGradient-56)" fill-rule="nonzero"></path>
                    <g id="eye" transform="translate(8.492180, 16.150306)">
                        <mask id="mask-58" fill="white">
                            <use xlink:href="#path-57"></use>
                        </mask>
                        <use id="Mask" stroke="#461D10" stroke-width="0.5" fill="#FFFFFF" fill-rule="nonzero" xlink:href="#path-57"></use>
                        <circle id="椭圆形" stroke="#2C1F1B" stroke-width="0.5" fill="url(#radialGradient-59)" fill-rule="nonzero" mask="url(#mask-58)" cx="6.42845705" cy="5.97237684" r="5.02706716"></circle>
                        <circle id="椭圆形" fill="#301911" fill-rule="nonzero" mask="url(#mask-58)" cx="6.46181918" cy="6.00573898" r="4.15055289"></circle>
                        <circle id="椭圆形" fill="#000000" fill-rule="nonzero" mask="url(#mask-58)" cx="6.44362165" cy="5.98754145" r="2.0093104"></circle>
                        <ellipse id="椭圆形" fill="#FFFFFF" fill-rule="nonzero" mask="url(#mask-58)" transform="translate(4.295288, 3.982094) rotate(-52.780000) translate(-4.295288, -3.982094) " cx="4.29528825" cy="3.98209357" rx="1.61503063" ry="1.26472821"></ellipse>
                        <circle id="椭圆形" fill="#FFFFFF" fill-rule="nonzero" mask="url(#mask-58)" transform="translate(2.748357, 5.597440) rotate(-69.520000) translate(-2.748357, -5.597440) " cx="2.74835746" cy="5.59743968" r="1"></circle>
                        <circle id="椭圆形" fill="#FFFFFF" fill-rule="nonzero" mask="url(#mask-58)" transform="translate(9.724077, 7.947954) rotate(-69.520000) translate(-9.724077, -7.947954) " cx="9.7240766" cy="7.94795374" r="1"></circle>
                        <ellipse id="椭圆形" fill="#FFFFFF" fill-rule="nonzero" mask="url(#mask-58)" transform="translate(6.336355, 9.598128) rotate(-0.520000) translate(-6.336355, -9.598128) " cx="6.33635472" cy="9.59812771" rx="1" ry="1"></ellipse>
                    </g>
                    <g id="eye" transform="translate(31.817385, 22.320261) scale(-1, 1) translate(-31.817385, -22.320261) translate(25.647431, 16.150306)">
                        <mask id="mask-61" fill="white">
                            <use xlink:href="#path-60"></use>
                        </mask>
                        <use id="Mask" stroke="#461D10" stroke-width="0.5" fill="#FFFFFF" fill-rule="nonzero" xlink:href="#path-60"></use>
                        <circle id="椭圆形" stroke="#2C1F1B" stroke-width="0.5" fill="url(#radialGradient-59)" fill-rule="nonzero" mask="url(#mask-61)" cx="6.42845705" cy="5.97237684" r="5.02706716"></circle>
                        <circle id="椭圆形" fill="#301911" fill-rule="nonzero" mask="url(#mask-61)" cx="6.46181918" cy="6.00573898" r="4.15055289"></circle>
                        <ellipse id="椭圆形" fill="#FFFFFF" fill-rule="nonzero" mask="url(#mask-61)" transform="translate(6.401915, 9.598128) rotate(-0.520000) translate(-6.401915, -9.598128) " cx="6.40191501" cy="9.59812771" rx="1" ry="1"></ellipse>
                        <circle id="椭圆形" fill="#000000" fill-rule="nonzero" mask="url(#mask-61)" cx="6.44362165" cy="5.98754145" r="2.0093104"></circle>
                        <ellipse id="椭圆形" fill="#FFFFFF" fill-rule="nonzero" mask="url(#mask-61)" transform="translate(4.295288, 3.982094) rotate(-52.780000) translate(-4.295288, -3.982094) " cx="4.29528825" cy="3.98209357" rx="1.61503063" ry="1.26472821"></ellipse>
                        <circle id="椭圆形" fill="#FFFFFF" fill-rule="nonzero" mask="url(#mask-61)" transform="translate(2.748357, 5.597440) rotate(-69.520000) translate(-2.748357, -5.597440) " cx="2.74835746" cy="5.59743968" r="1"></circle>
                        <circle id="椭圆形" fill="#FFFFFF" fill-rule="nonzero" mask="url(#mask-61)" transform="translate(9.724077, 7.947954) rotate(-69.520000) translate(-9.724077, -7.947954) " cx="9.7240766" cy="7.94795374" r="1"></circle>
                    </g>
                    <g id="形状" fill-rule="nonzero">
                        <use fill="black" fill-opacity="1" filter="url(#filter-64)" xlink:href="#path-63"></use>
                        <use fill="url(#radialGradient-62)" xlink:href="#path-63"></use>
                        <use fill="black" fill-opacity="1" filter="url(#filter-65)" xlink:href="#path-63"></use>
                    </g>
                    <g id="形状" fill-rule="nonzero" transform="translate(11.221809, 27.789142) scale(-1, 1) translate(-11.221809, -27.789142) ">
                        <use fill="black" fill-opacity="1" filter="url(#filter-68)" xlink:href="#path-67"></use>
                        <use fill="url(#radialGradient-66)" xlink:href="#path-67"></use>
                        <use fill="black" fill-opacity="1" filter="url(#filter-69)" xlink:href="#path-67"></use>
                    </g>
                    <path d="M20.9271574,30.8599749 C21.3631153,31.8204 22.1554983,32.3006125 23.3043065,32.3006125 C24.4531147,32.3006125 25.2277411,31.8204 25.6281855,30.8599749" id="路径-3" stroke="#301911" stroke-width="0.5" stroke-linecap="round" transform="translate(23.277671, 31.580294) scale(1, -1) translate(-23.277671, -31.580294) "></path>
                </g>
                <path d="M32.9463546,35.1543878 C31.1291005,37.2251773 29.3679956,41.7907498 31.3431282,43.3770702 C32.9219131,44.6457279 33.8691841,40.2642403 35.6864382,38.1934508 C36.2408154,37.5617293 36.8485536,36.8739127 37.3979352,36.1984323 C36.6995488,35.7393762 36.1930475,35.3865698 35.8784311,35.1400131 C35.5251039,34.8631198 35.0296899,34.4307512 34.3921891,33.8429074 C33.8662117,34.2291329 33.3692186,34.6727027 32.9463546,35.1543878 Z" id="路径" fill="url(#radialGradient-76)" transform="translate(33.935835, 38.723242) rotate(203.000000) translate(-33.935835, -38.723242) "></path>
                <path d="M35.35377,34.8616022 C35.2137272,36.0485182 35.5720621,37.237805 36.310354,37.7853561 C37.2512412,38.4831611 37.7965929,37.2972388 38.5780584,35.7919955" id="路径" fill="url(#linearGradient-77)" fill-rule="nonzero" transform="translate(36.950989, 36.426066) rotate(-154.000000) translate(-36.950989, -36.426066) "></path>
                <path d="M11.7835061,35.1543878 C9.966252,37.2251773 8.20514715,41.7907498 10.1802797,43.3770702 C11.7590647,44.6457279 12.7063356,40.2642403 14.5235897,38.1934508 C15.0779669,37.5617293 15.6857051,36.8739127 16.2350867,36.1984323 C15.5367004,35.7393762 15.030199,35.3865698 14.7155827,35.1400131 C14.3622554,34.8631198 13.8668414,34.4307512 13.2293406,33.8429074 C12.7033632,34.2291329 12.2063701,34.6727027 11.7835061,35.1543878 Z" id="路径" fill="url(#radialGradient-76)" transform="translate(12.772986, 38.723242) scale(-1, 1) rotate(203.000000) translate(-12.772986, -38.723242) "></path>
                <path d="M8.16061377,34.8616022 C8.02057092,36.0485182 8.37890581,37.237805 9.11719777,37.7853561 C10.058085,38.4831611 10.6034366,37.2972388 11.3849021,35.7919955" id="路径" fill="url(#linearGradient-77)" fill-rule="nonzero" transform="translate(9.757833, 36.426066) scale(-1, 1) rotate(-154.000000) translate(-9.757833, -36.426066) "></path>
                <polygon id="路径-4" fill="#606060" filter="url(#filter-78)" points="23.3473076 54.2892924 23.2776715 57.3980368 23.3864909 57.3980368"></polygon>
                <path d="M20.7755114,53.379416 C21.5144838,54.036549 22.3738116,54.3651155 23.3534945,54.3651155 C24.3331775,54.3651155 25.1925052,54.036549 25.9314777,53.379416" id="路径-5" stroke="url(#linearGradient-79)" filter="url(#filter-80)"></path>
                <g id="路径-6">
                    <use fill="url(#linearGradient-81)" fill-rule="evenodd" xlink:href="#path-82"></use>
                    <use fill="black" fill-opacity="1" filter="url(#filter-83)" xlink:href="#path-82"></use>
                </g>
                <path d="M34.6254628,52.2355445 C34.9729145,52.276337 35.4779448,52.1224544 35.6816555,51.8701272 C35.8223863,51.6958103 36.0014446,51.5391754 36.1831195,51.4291709 C36.3620484,51.3208292 36.5221818,51.3208292 36.6635196,51.4291709 C36.6635196,50.7463027 35.8110696,50.1190256 34.891683,50.1190256 C33.9722964,50.1190256 33.7064212,50.8801137 33.7064212,51.283691 C33.7064212,51.6872683 34.0292869,52.1655507 34.6254628,52.2355445 Z" id="椭圆形" fill="url(#linearGradient-84)" fill-rule="nonzero"></path>
                <g id="路径-7">
                    <use fill="url(#radialGradient-85)" fill-rule="evenodd" xlink:href="#path-86"></use>
                    <use fill="black" fill-opacity="1" filter="url(#filter-87)" xlink:href="#path-86"></use>
                </g>
            </g>
        </g>
    </g>
</svg>