<?xml version="1.0" encoding="UTF-8"?>
<svg width="220px" height="220px" viewBox="0 0 220 220" version="1.1" xmlns="http://www.w3.org/2000/svg" xmlns:xlink="http://www.w3.org/1999/xlink">
    <!-- Generator: Sketch 61 (89581) - https://sketch.com -->
    <title>暂无数据@2x</title>
    <desc>Created with Sketch.</desc>
    <defs>
        <radialGradient cx="50%" cy="53.1376138%" fx="50%" fy="53.1376138%" r="79.4302246%" gradientTransform="translate(0.500000,0.531376),scale(1.000000,0.989529),scale(1.000000,1.009335),translate(-0.500000,-0.531376)" id="radialGradient-1">
            <stop stop-color="#FFDFAE" offset="0%"></stop>
            <stop stop-color="#FFE389" offset="100%"></stop>
        </radialGradient>
        <filter x="-50.2%" y="-49.7%" width="200.5%" height="199.4%" filterUnits="objectBoundingBox" id="filter-2">
            <feGaussianBlur stdDeviation="24" in="SourceGraphic"></feGaussianBlur>
        </filter>
        <linearGradient x1="50%" y1="113.24824%" x2="50%" y2="-34.9879449%" id="linearGradient-3">
            <stop stop-color="#FFEDD9" stop-opacity="0" offset="0%"></stop>
            <stop stop-color="#FCDF97" stop-opacity="0.682036713" offset="34.6856228%"></stop>
            <stop stop-color="#FFC489" offset="100%"></stop>
        </linearGradient>
        <linearGradient x1="50%" y1="113.24824%" x2="50%" y2="-34.9879449%" id="linearGradient-4">
            <stop stop-color="#FFEDD9" stop-opacity="0" offset="0%"></stop>
            <stop stop-color="#FCDF97" stop-opacity="0.682036713" offset="34.6856228%"></stop>
            <stop stop-color="#FFC489" offset="100%"></stop>
        </linearGradient>
        <linearGradient x1="50%" y1="113.24824%" x2="50%" y2="-34.9879449%" id="linearGradient-5">
            <stop stop-color="#FFEDD9" stop-opacity="0" offset="0%"></stop>
            <stop stop-color="#FCDF97" stop-opacity="0.682036713" offset="34.6856228%"></stop>
            <stop stop-color="#FFC489" offset="100%"></stop>
        </linearGradient>
        <path d="M14.2498807,53.827907 C11.7523412,53.827907 9.85581395,52.0568433 9.85581395,49.6954251 C9.85581395,47.7000267 12.0034308,46.5429318 13.980093,46.1178765 C14.4876144,43.980793 15.7991565,41.9853946 18.296696,41.9853946 C19.0312664,41.9853946 19.7658368,42.1270797 20.4336281,42.3868357 C21.67572,40.5449295 23.9061429,39.4232558 26.3636149,39.4232558 C30.196737,39.4232558 32.5063676,43.4280964 32.5063676,45.5178825 C32.5063676,45.6949889 33.3086444,45.9407701 33.2952886,46.1178765 C34.724362,46.8499161 35.6325581,48.2195387 35.6325581,49.6954251 C35.6325581,51.9741937 33.5356935,53.827907 30.9713749,53.827907 L14.2498807,53.827907 Z" id="path-6"></path>
        <filter x="-8.1%" y="-14.6%" width="116.3%" height="129.2%" filterUnits="objectBoundingBox" id="filter-7">
            <feGaussianBlur stdDeviation="0.7" in="SourceGraphic"></feGaussianBlur>
        </filter>
        <filter x="-17.8%" y="-31.9%" width="135.7%" height="163.9%" filterUnits="objectBoundingBox" id="filter-8">
            <feGaussianBlur stdDeviation="2" in="SourceAlpha" result="shadowBlurInner1"></feGaussianBlur>
            <feOffset dx="0" dy="-1" in="shadowBlurInner1" result="shadowOffsetInner1"></feOffset>
            <feComposite in="shadowOffsetInner1" in2="SourceAlpha" operator="arithmetic" k2="-1" k3="1" result="shadowInnerInner1"></feComposite>
            <feColorMatrix values="0 0 0 0 1   0 0 0 0 0.896903844   0 0 0 0 0.792751736  0 0 0 1 0" type="matrix" in="shadowInnerInner1"></feColorMatrix>
        </filter>
        <path d="M122.094486,20.5252511 C121.550154,18.0651656 120.21766,15.9209302 117.446514,15.9209302 C114.328723,15.9209302 113.834127,18.8078329 112.893916,20.5252511 C111.271167,19.7977805 108.413953,21.5373517 108.413953,23.7189369 C108.413953,26.0861889 110.370193,27.2930233 112.893916,27.2930233 L122.741383,27.2930233 C124.819743,27.2930233 126.609302,25.7148552 126.609302,23.7189369 C126.609302,21.8622686 124.220779,19.4773838 122.094486,20.5252511 Z" id="path-9"></path>
        <filter x="-11.5%" y="-18.5%" width="123.1%" height="136.9%" filterUnits="objectBoundingBox" id="filter-10">
            <feGaussianBlur stdDeviation="0.7" in="SourceGraphic"></feGaussianBlur>
        </filter>
        <filter x="-25.3%" y="-40.4%" width="150.6%" height="180.9%" filterUnits="objectBoundingBox" id="filter-11">
            <feGaussianBlur stdDeviation="2" in="SourceAlpha" result="shadowBlurInner1"></feGaussianBlur>
            <feOffset dx="0" dy="-1" in="shadowBlurInner1" result="shadowOffsetInner1"></feOffset>
            <feComposite in="shadowOffsetInner1" in2="SourceAlpha" operator="arithmetic" k2="-1" k3="1" result="shadowInnerInner1"></feComposite>
            <feColorMatrix values="0 0 0 0 1   0 0 0 0 0.896903844   0 0 0 0 0.792751736  0 0 0 1 0" type="matrix" in="shadowInnerInner1"></feColorMatrix>
        </filter>
        <linearGradient x1="50%" y1="-14.241728%" x2="50%" y2="126.883588%" id="linearGradient-12">
            <stop stop-color="#FFF4E7" stop-opacity="0" offset="0%"></stop>
            <stop stop-color="#E7A25D" offset="100%"></stop>
        </linearGradient>
        <linearGradient x1="-31.5219133%" y1="44.7044826%" x2="98.712135%" y2="44.7044826%" id="linearGradient-13">
            <stop stop-color="#E8DFDB" offset="0%"></stop>
            <stop stop-color="#CCB9B5" offset="100%"></stop>
        </linearGradient>
        <linearGradient x1="100%" y1="0%" x2="100%" y2="121.05008%" id="linearGradient-14">
            <stop stop-color="#E8E2DB" stop-opacity="0.457331731" offset="0%"></stop>
            <stop stop-color="#CCC3B5" offset="100%"></stop>
        </linearGradient>
        <filter x="-277.2%" y="-9.4%" width="654.5%" height="118.8%" filterUnits="objectBoundingBox" id="filter-15">
            <feGaussianBlur stdDeviation="1" in="SourceGraphic"></feGaussianBlur>
        </filter>
        <linearGradient x1="-31.5219133%" y1="44.7044826%" x2="98.712135%" y2="44.7044826%" id="linearGradient-16">
            <stop stop-color="#E8DFDB" offset="0%"></stop>
            <stop stop-color="#CCB9B5" offset="100%"></stop>
        </linearGradient>
        <linearGradient x1="100%" y1="0%" x2="100%" y2="121.05008%" id="linearGradient-17">
            <stop stop-color="#E8E2DB" stop-opacity="0.457331731" offset="0%"></stop>
            <stop stop-color="#CCC3B5" offset="100%"></stop>
        </linearGradient>
        <filter x="-292.0%" y="-12.2%" width="684.1%" height="124.4%" filterUnits="objectBoundingBox" id="filter-18">
            <feGaussianBlur stdDeviation="1" in="SourceGraphic"></feGaussianBlur>
        </filter>
        <linearGradient x1="100%" y1="45.839497%" x2="0%" y2="50%" id="linearGradient-19">
            <stop stop-color="#FFB400" stop-opacity="0" offset="0%"></stop>
            <stop stop-color="#D04800" stop-opacity="0.423541302" offset="100%"></stop>
        </linearGradient>
        <linearGradient x1="100%" y1="0%" x2="100%" y2="121.05008%" id="linearGradient-20">
            <stop stop-color="#E8E2DB" stop-opacity="0.457331731" offset="0%"></stop>
            <stop stop-color="#CCC3B5" offset="100%"></stop>
        </linearGradient>
        <filter x="-299.8%" y="-23.7%" width="699.6%" height="147.4%" filterUnits="objectBoundingBox" id="filter-21">
            <feGaussianBlur stdDeviation="1" in="SourceGraphic"></feGaussianBlur>
        </filter>
        <linearGradient x1="87.3855139%" y1="40.0594938%" x2="50%" y2="80.4884822%" id="linearGradient-22">
            <stop stop-color="#FFD87A" offset="0%"></stop>
            <stop stop-color="#FD5902" offset="100%"></stop>
        </linearGradient>
        <linearGradient x1="50%" y1="0%" x2="50%" y2="100%" id="linearGradient-23">
            <stop stop-color="#FFFFFF" stop-opacity="0.0597683566" offset="0%"></stop>
            <stop stop-color="#FFA539" stop-opacity="0.375546329" offset="100%"></stop>
        </linearGradient>
        <polygon id="path-24" points="-1.42108547e-14 32.2150638 21.492272 41.0909241 81.621877 0.241431307"></polygon>
        <linearGradient x1="76.4594847%" y1="10.3129958%" x2="50%" y2="171.723834%" id="linearGradient-25">
            <stop stop-color="#FFD97E" offset="0%"></stop>
            <stop stop-color="#FD5902" offset="100%"></stop>
        </linearGradient>
        <linearGradient x1="50%" y1="0%" x2="50%" y2="100%" id="linearGradient-26">
            <stop stop-color="#FFFFFF" stop-opacity="0.0597683566" offset="0%"></stop>
            <stop stop-color="#FFA539" stop-opacity="0.375546329" offset="100%"></stop>
        </linearGradient>
        <polygon id="path-27" points="30.5081141 46.2029764 61.7000477 60.9987837 81.621877 0.241431307"></polygon>
        <filter x="-13.7%" y="-8.2%" width="127.4%" height="123.0%" filterUnits="objectBoundingBox" id="filter-28">
            <feOffset dx="0" dy="2" in="SourceAlpha" result="shadowOffsetOuter1"></feOffset>
            <feGaussianBlur stdDeviation="2" in="shadowOffsetOuter1" result="shadowBlurOuter1"></feGaussianBlur>
            <feColorMatrix values="0 0 0 0 0.930140399   0 0 0 0 0.539151197   0 0 0 0 0.124349562  0 0 0 0.135407561 0" type="matrix" in="shadowBlurOuter1"></feColorMatrix>
        </filter>
        <linearGradient x1="40.2351938%" y1="0%" x2="103.922999%" y2="85.1261582%" id="linearGradient-29">
            <stop stop-color="#FFCE5A" offset="0%"></stop>
            <stop stop-color="#FD5902" offset="100%"></stop>
        </linearGradient>
        <linearGradient x1="50%" y1="0%" x2="50%" y2="100%" id="linearGradient-30">
            <stop stop-color="#FFFFFF" stop-opacity="0.0597683566" offset="0%"></stop>
            <stop stop-color="#FFBC39" stop-opacity="0.162368881" offset="100%"></stop>
        </linearGradient>
        <polygon id="path-31" points="30.5081141 45.3836751 22.0211284 60.9987837 37.1723126 49.3415538"></polygon>
        <filter x="-6.6%" y="-6.4%" width="113.2%" height="112.8%" filterUnits="objectBoundingBox" id="filter-32">
            <feGaussianBlur stdDeviation="0.5" in="SourceAlpha" result="shadowBlurInner1"></feGaussianBlur>
            <feOffset dx="0" dy="-1" in="shadowBlurInner1" result="shadowOffsetInner1"></feOffset>
            <feComposite in="shadowOffsetInner1" in2="SourceAlpha" operator="arithmetic" k2="-1" k3="1" result="shadowInnerInner1"></feComposite>
            <feColorMatrix values="0 0 0 0 0.875084918   0 0 0 0 0.586028108   0 0 0 0 0.279366858  0 0 0 0.506993007 0" type="matrix" in="shadowInnerInner1"></feColorMatrix>
        </filter>
        <linearGradient x1="35.5213649%" y1="42.1631268%" x2="45.7585037%" y2="57.146855%" id="linearGradient-33">
            <stop stop-color="#FFB55A" offset="0%"></stop>
            <stop stop-color="#FD5902" offset="100%"></stop>
        </linearGradient>
        <polygon id="path-34" points="20.7664307 41.0096643 21.9670067 61.3428104 30.0718143 46.5023913 81.8541647 1.13686838e-13"></polygon>
        <filter x="-2.5%" y="-2.4%" width="104.9%" height="104.9%" filterUnits="objectBoundingBox" id="filter-35">
            <feGaussianBlur stdDeviation="0.5" in="SourceAlpha" result="shadowBlurInner1"></feGaussianBlur>
            <feOffset dx="0" dy="-2" in="shadowBlurInner1" result="shadowOffsetInner1"></feOffset>
            <feComposite in="shadowOffsetInner1" in2="SourceAlpha" operator="arithmetic" k2="-1" k3="1" result="shadowInnerInner1"></feComposite>
            <feColorMatrix values="0 0 0 0 0.756283967   0 0 0 0 0.415804349   0 0 0 0 0.0545884845  0 0 0 0.121175699 0" type="matrix" in="shadowInnerInner1"></feColorMatrix>
        </filter>
        <path d="M18.8129594,41.8319451 C20.2044165,45.6276797 20.9131121,47.7894488 20.9390462,48.3172522 C20.9649802,48.8450557 20.8803809,49.6050067 20.6852481,50.5971053 C21.8769981,51.1565784 23.1431359,51.5088398 24.4836616,51.6538895 C24.9014473,51.6990954 25.673156,51.346834 26.7987876,50.5971053 C26.891993,50.5140842 26.9385957,50.4206853 26.9385957,50.3169085 C26.9385957,49.9675468 26.4212177,49.4381718 26.1534694,49.2209667 C25.8381605,48.965179 25.2296297,48.9272148 24.327877,49.107074 C24.1821156,48.4627307 24.1044655,48.0003746 24.094927,47.7200058 C24.0853885,47.439637 24.1652503,47.017661 24.3345125,46.4540778 L18.8129594,41.8319451 Z" id="path-36"></path>
        <filter x="-12.3%" y="-10.2%" width="124.6%" height="120.4%" filterUnits="objectBoundingBox" id="filter-37">
            <feGaussianBlur stdDeviation="0.5" in="SourceAlpha" result="shadowBlurInner1"></feGaussianBlur>
            <feOffset dx="1" dy="-1" in="shadowBlurInner1" result="shadowOffsetInner1"></feOffset>
            <feComposite in="shadowOffsetInner1" in2="SourceAlpha" operator="arithmetic" k2="-1" k3="1" result="shadowInnerInner1"></feComposite>
            <feColorMatrix values="0 0 0 0 0.427111639   0 0 0 0 0.427111639   0 0 0 0 0.427111639  0 0 0 0.2051191 0" type="matrix" in="shadowInnerInner1"></feColorMatrix>
        </filter>
        <path d="M19.7235673,48.1182884 C19.9897657,48.5724965 20.1358319,49.0635022 20.161766,49.5913057 C20.1877001,50.1191092 20.1031007,50.8790602 19.9079679,51.8711588 C21.3196561,52.1052893 22.695763,52.2948794 24.0362888,52.4399291 C24.4540745,52.4851351 25.115814,52.2955449 26.0215074,51.8711588 C26.1147128,51.7881377 26.1613155,51.6947387 26.1613155,51.5909619 C26.1613155,51.2416002 25.6439375,50.7122253 25.3761893,50.4950202 C25.0608803,50.2392325 24.4523495,50.2012683 23.5505969,50.3811275 C23.4048354,49.7367842 23.3271854,49.2744281 23.3176468,48.9940593 C23.3081083,48.7136904 23.3879701,48.2917144 23.5572323,47.7281312 L19.7235673,48.1182884 Z" id="path-38"></path>
        <filter x="-15.5%" y="-21.2%" width="131.1%" height="142.4%" filterUnits="objectBoundingBox" id="filter-39">
            <feGaussianBlur stdDeviation="0.5" in="SourceAlpha" result="shadowBlurInner1"></feGaussianBlur>
            <feOffset dx="1" dy="-1" in="shadowBlurInner1" result="shadowOffsetInner1"></feOffset>
            <feComposite in="shadowOffsetInner1" in2="SourceAlpha" operator="arithmetic" k2="-1" k3="1" result="shadowInnerInner1"></feComposite>
            <feColorMatrix values="0 0 0 0 0.427111639   0 0 0 0 0.427111639   0 0 0 0 0.427111639  0 0 0 0.2051191 0" type="matrix" in="shadowInnerInner1"></feColorMatrix>
        </filter>
        <radialGradient cx="50%" cy="50%" fx="50%" fy="50%" r="113.180539%" gradientTransform="translate(0.500000,0.500000),scale(1.000000,0.890338),rotate(-1.211216),scale(1.000000,0.801691),translate(-0.500000,-0.500000)" id="radialGradient-40">
            <stop stop-color="#FFFFFF" offset="0%"></stop>
            <stop stop-color="#D8D8D8" offset="100%"></stop>
        </radialGradient>
        <path d="M14.2641291,34.9335372 C11.2618175,39.5414131 9.95706484,42.8452718 10.3498711,44.8451134 C10.9390805,47.8448757 13.8434451,51.4333834 17.5744979,51.4333834 C18.6676888,51.4333834 19.436777,51.2971061 19.9735206,51.1646876 C21.0661542,50.8951268 21.5623327,50.582159 22.0529791,50.2275749 C22.3112511,50.0409248 22.7516382,49.6818205 22.9954495,49.4066886 C23.8078202,48.4899584 25.1484851,47.1394968 25.1484851,44.7478318 C25.1484851,43.6213387 24.6196962,42.4985855 23.5621183,41.3795721 C22.9235304,40.4480498 22.420484,39.5312378 22.0529791,38.6291361 C21.6854742,37.7270344 21.2672435,36.4291479 20.7982871,34.7354767 L14.2641291,34.9335372 Z" id="path-41"></path>
        <filter x="-23.5%" y="-21.0%" width="147.1%" height="141.9%" filterUnits="objectBoundingBox" id="filter-43">
            <feGaussianBlur stdDeviation="3" in="SourceAlpha" result="shadowBlurInner1"></feGaussianBlur>
            <feOffset dx="0" dy="1" in="shadowBlurInner1" result="shadowOffsetInner1"></feOffset>
            <feComposite in="shadowOffsetInner1" in2="SourceAlpha" operator="arithmetic" k2="-1" k3="1" result="shadowInnerInner1"></feComposite>
            <feColorMatrix values="0 0 0 0 0.629698822   0 0 0 0 0.629698822   0 0 0 0 0.629698822  0 0 0 0.5 0" type="matrix" in="shadowInnerInner1"></feColorMatrix>
        </filter>
        <radialGradient cx="48.0083119%" cy="36.8203806%" fx="48.0083119%" fy="36.8203806%" r="210.011297%" gradientTransform="translate(0.480083,0.368204),scale(1.000000,0.446415),rotate(90.000000),scale(1.000000,0.742045),translate(-0.480083,-0.368204)" id="radialGradient-44">
            <stop stop-color="#FFFFFF" offset="0%"></stop>
            <stop stop-color="#CECECE" offset="100%"></stop>
        </radialGradient>
        <path d="M22.0100794,46.3482369 C24.1572037,46.3418056 24.947003,44.1175831 24.8695312,41.2827256 C24.8030301,38.8493113 23.9796103,36.8123318 22.7619359,36.287544 C22.6569905,36.2423151 21.5068585,38.7646439 20.8016491,41.0926317 C20.4352579,42.3021366 20.3143174,43.4745732 20.4197591,44.4029193 C20.5250219,45.329691 20.8953726,46.0360351 21.0034428,46.1545471 C21.1430364,46.3076282 21.6331943,46.3493399 22.0100794,46.3482369 Z" id="path-45"></path>
        <radialGradient cx="50%" cy="50%" fx="50%" fy="50%" r="189.335485%" gradientTransform="translate(0.500000,0.500000),scale(1.000000,0.349091),rotate(-90.000000),scale(1.000000,0.570567),translate(-0.500000,-0.500000)" id="radialGradient-46">
            <stop stop-color="#FFFFFF" offset="0%"></stop>
            <stop stop-color="#D2D2D2" offset="100%"></stop>
        </radialGradient>
        <path d="M20.2413532,38.8417152 C20.1339935,42.8478914 21.0420146,44.5879153 22.2574302,44.5879153 C23.478656,44.5879153 23.7751386,42.7284162 23.7751386,38.8417152 C23.7751386,34.9550143 22.2574302,34.440389 21.9662116,34.440389 C21.674993,34.440389 20.348713,34.8355391 20.2413532,38.8417152 Z" id="path-47"></path>
        <linearGradient x1="26.0416322%" y1="81.2162583%" x2="42.6220708%" y2="2.70166079%" id="linearGradient-48">
            <stop stop-color="#301911" offset="0%"></stop>
            <stop stop-color="#AF6F27" offset="100%"></stop>
        </linearGradient>
        <linearGradient x1="107.934679%" y1="36.9179046%" x2="-13.6180123%" y2="36.9117571%" id="linearGradient-49">
            <stop stop-color="#E95100" offset="0%"></stop>
            <stop stop-color="#FD5E02" offset="27.4702006%"></stop>
            <stop stop-color="#FF8404" offset="50.2561642%"></stop>
            <stop stop-color="#FD6002" offset="75.7684291%"></stop>
            <stop stop-color="#E24E00" offset="100%"></stop>
        </linearGradient>
        <path d="M14.9274303,35.4620971 C14.5482231,36.0053815 14.3366609,36.3423427 14.2927437,36.4729807 C14.4426687,36.6529723 14.4870283,36.8185496 14.9274303,37.0461926 C14.5796443,37.9055326 14.3803878,38.4474063 14.3296608,38.6718135 C14.2067672,39.2154725 14.1335314,39.8459082 14.1335314,40.0054072 C14.1335314,40.1860615 14.6726081,40.3942342 15.1076452,40.4605615 C15.503188,40.5208674 16.0767728,40.4465583 16.1378537,40.3915694 C16.2021527,40.3336833 16.2866692,39.6465977 16.2866692,38.9478786 C16.2866692,38.6094955 16.237064,38.0881021 16.1378537,37.3836984 C17.2288608,37.6689533 18.2937863,37.770404 19.3326303,37.6880504 C20.9988595,37.5559613 21.9130286,36.9670945 22.2853291,36.5493349 C22.1827907,36.1324553 22.1142453,35.874264 22.0796928,35.7747612 C22.0451403,35.6752585 22.0132332,35.5502802 21.9839715,35.3998264 C20.4911206,35.5865636 19.3030976,35.6799322 18.4199025,35.6799322 C17.5367074,35.6799322 16.37255,35.6073205 14.9274303,35.4620971 Z" id="path-50"></path>
        <filter x="-30.7%" y="-49.2%" width="161.3%" height="198.4%" filterUnits="objectBoundingBox" id="filter-51">
            <feGaussianBlur stdDeviation="1.5" in="SourceAlpha" result="shadowBlurInner1"></feGaussianBlur>
            <feOffset dx="2" dy="0" in="shadowBlurInner1" result="shadowOffsetInner1"></feOffset>
            <feComposite in="shadowOffsetInner1" in2="SourceAlpha" operator="arithmetic" k2="-1" k3="1" result="shadowInnerInner1"></feComposite>
            <feColorMatrix values="0 0 0 0 0.817680027   0 0 0 0 0.283418974   0 0 0 0 0  0 0 0 0.625874126 0" type="matrix" in="shadowInnerInner1" result="shadowMatrixInner1"></feColorMatrix>
            <feGaussianBlur stdDeviation="1.5" in="SourceAlpha" result="shadowBlurInner2"></feGaussianBlur>
            <feOffset dx="-2" dy="0" in="shadowBlurInner2" result="shadowOffsetInner2"></feOffset>
            <feComposite in="shadowOffsetInner2" in2="SourceAlpha" operator="arithmetic" k2="-1" k3="1" result="shadowInnerInner2"></feComposite>
            <feColorMatrix values="0 0 0 0 0.883378623   0 0 0 0 0.306190997   0 0 0 0 0  0 0 0 0.733173077 0" type="matrix" in="shadowInnerInner2" result="shadowMatrixInner2"></feColorMatrix>
            <feMerge>
                <feMergeNode in="shadowMatrixInner1"></feMergeNode>
                <feMergeNode in="shadowMatrixInner2"></feMergeNode>
            </feMerge>
        </filter>
        <radialGradient cx="50%" cy="50%" fx="50%" fy="50%" r="123.774181%" gradientTransform="translate(0.500000,0.500000),scale(0.914343,1.000000),rotate(-0.986069),scale(1.000000,0.801691),translate(-0.500000,-0.500000)" id="radialGradient-52">
            <stop stop-color="#FFFFFF" offset="0%"></stop>
            <stop stop-color="#D2D2D2" offset="100%"></stop>
        </radialGradient>
        <path d="M16.7976545,31.9134845 C23.146946,31.9134845 31.6831161,29.7738073 33.9511087,24.6562462 C35.4824037,21.2009898 34.7882633,18.7849054 34.1508021,15.933633 C33.1544457,11.4770739 30.636727,6.9086593 28.6107673,4.23296037 C26.5848076,1.55726144 24.7796485,0.0263168988 18.694742,0.0263168988 C11.6269244,0.0263168988 10.0645035,1.17510815 7.77702353,4.23296037 C5.58252754,7.16651363 4.81818105,12.4126473 2.25936934,15.933633 C0.763237714,17.9923456 -0.812363671,21.328773 0.475622381,24.6562462 C2.62672937,30.2135664 10.1815082,31.9134845 16.7976545,31.9134845 Z" id="path-53"></path>
        <filter x="-10.0%" y="-11.0%" width="120.1%" height="122.0%" filterUnits="objectBoundingBox" id="filter-55">
            <feGaussianBlur stdDeviation="3" in="SourceAlpha" result="shadowBlurInner1"></feGaussianBlur>
            <feOffset dx="0" dy="1" in="shadowBlurInner1" result="shadowOffsetInner1"></feOffset>
            <feComposite in="shadowOffsetInner1" in2="SourceAlpha" operator="arithmetic" k2="-1" k3="1" result="shadowInnerInner1"></feComposite>
            <feColorMatrix values="0 0 0 0 0.629698822   0 0 0 0 0.629698822   0 0 0 0 0.629698822  0 0 0 0.5 0" type="matrix" in="shadowInnerInner1" result="shadowMatrixInner1"></feColorMatrix>
            <feGaussianBlur stdDeviation="1.5" in="SourceAlpha" result="shadowBlurInner2"></feGaussianBlur>
            <feOffset dx="0" dy="1" in="shadowBlurInner2" result="shadowOffsetInner2"></feOffset>
            <feComposite in="shadowOffsetInner2" in2="SourceAlpha" operator="arithmetic" k2="-1" k3="1" result="shadowInnerInner2"></feComposite>
            <feColorMatrix values="0 0 0 0 1   0 0 0 0 1   0 0 0 0 1  0 0 0 0.5 0" type="matrix" in="shadowInnerInner2" result="shadowMatrixInner2"></feColorMatrix>
            <feMerge>
                <feMergeNode in="shadowMatrixInner1"></feMergeNode>
                <feMergeNode in="shadowMatrixInner2"></feMergeNode>
            </feMerge>
        </filter>
        <radialGradient cx="71.6876954%" cy="58.5051694%" fx="71.6876954%" fy="58.5051694%" r="55.4687148%" gradientTransform="translate(0.716877,0.585052),scale(1.000000,0.832683),rotate(180.000000),scale(1.000000,1.216249),translate(-0.716877,-0.585052)" id="radialGradient-56">
            <stop stop-color="#595959" offset="0%"></stop>
            <stop stop-color="#000000" offset="100%"></stop>
        </radialGradient>
        <path d="M17.2207916,-1.77469683 C24.4662175,5.10339765 26.4498871,11.5928497 23.1718005,17.6936593 C20.9908906,21.7525258 14.8486393,25.900639 7.81958477,25.9022805 C5.36642517,25.9028527 3.31980863,25.5681563 1.67973517,24.8981915 C1.615184,23.4332717 1.69013691,22.4302835 1.90459387,21.8892269 C3.54674628,17.7462164 3.6339159,14.3550663 4.14310363,11.9582232 C4.57931965,9.90487172 4.88357449,8.56025374 5.74544685,6.3733052 C5.93572546,5.89048484 6.51720177,4.67006173 7.48987577,2.71203586 C8.94734753,1.51306775 10.211911,0.693619821 11.2835663,0.253692078 C12.3552215,-0.186235666 14.3342966,-0.862365302 17.2207916,-1.77469683 Z" id="path-57"></path>
        <filter x="-10.8%" y="-9.0%" width="121.7%" height="118.1%" filterUnits="objectBoundingBox" id="filter-58">
            <feGaussianBlur stdDeviation="2" in="SourceAlpha" result="shadowBlurInner1"></feGaussianBlur>
            <feOffset dx="-1" dy="0" in="shadowBlurInner1" result="shadowOffsetInner1"></feOffset>
            <feComposite in="shadowOffsetInner1" in2="SourceAlpha" operator="arithmetic" k2="-1" k3="1" result="shadowInnerInner1"></feComposite>
            <feColorMatrix values="0 0 0 0 1   0 0 0 0 1   0 0 0 0 1  0 0 0 0.495465472 0" type="matrix" in="shadowInnerInner1"></feColorMatrix>
        </filter>
        <radialGradient cx="48.0083119%" cy="32.5781468%" fx="48.0083119%" fy="32.5781468%" r="63.4286141%" gradientTransform="translate(0.480083,0.325781),scale(0.370969,1.000000),rotate(90.000000),scale(1.000000,3.175700),translate(-0.480083,-0.325781)" id="radialGradient-59">
            <stop stop-color="#FFFDF8" offset="0%"></stop>
            <stop stop-color="#CECECE" offset="100%"></stop>
        </radialGradient>
        <path d="M9.50275734,31.823067 C15.9804484,31.8211878 21.1990789,30.8320636 21.166779,28.0210931 C21.1341779,25.2101226 15.9830087,23.1436286 9.50531767,23.1455051 C3.02762661,23.1473842 -2.22415268,25.0914443 -2.22485969,27.4876861 C-2.22556671,29.8839279 3.02506629,31.8249434 9.50275734,31.823067 Z" id="path-60"></path>
        <filter x="-12.8%" y="-34.6%" width="125.7%" height="169.1%" filterUnits="objectBoundingBox" id="filter-61">
            <feGaussianBlur stdDeviation="2.5" in="SourceAlpha" result="shadowBlurInner1"></feGaussianBlur>
            <feOffset dx="0" dy="1" in="shadowBlurInner1" result="shadowOffsetInner1"></feOffset>
            <feComposite in="shadowOffsetInner1" in2="SourceAlpha" operator="arithmetic" k2="-1" k3="1" result="shadowInnerInner1"></feComposite>
            <feColorMatrix values="0 0 0 0 1   0 0 0 0 1   0 0 0 0 1  0 0 0 0.5 0" type="matrix" in="shadowInnerInner1"></feColorMatrix>
        </filter>
        <radialGradient cx="50%" cy="50%" fx="50%" fy="50%" r="57.1084208%" gradientTransform="translate(0.500000,0.500000),scale(1.000000,0.990746),rotate(9.429759),scale(1.000000,1.070890),translate(-0.500000,-0.500000)" id="radialGradient-62">
            <stop stop-color="#2F140B" offset="0%"></stop>
            <stop stop-color="#866236" offset="100%"></stop>
        </radialGradient>
        <radialGradient cx="50%" cy="50%" fx="50%" fy="50%" r="93.0162025%" gradientTransform="translate(0.500000,0.500000),scale(1.000000,0.780822),rotate(-2.233503),scale(1.000000,0.801691),translate(-0.500000,-0.500000)" id="radialGradient-63">
            <stop stop-color="#FFFFFF" offset="0%"></stop>
            <stop stop-color="#D2D2D2" offset="100%"></stop>
        </radialGradient>
        <path d="M11.879533,9.24308372 C11.879533,11.8943024 13.4643409,13.0598817 14.5910576,15.0805803 C14.9098621,15.6523368 15.243525,16.395145 15.6119068,16.395145 C15.9054577,16.395145 16.250093,15.6523368 16.5260906,15.0805803 C16.8467601,14.4162813 17.2891146,13.5653 18.1030079,12.6930061 C18.901951,11.8367353 19.7992217,11.1256663 19.7992217,9.37368172 C19.7992217,8.18203013 18.2929642,6.25238581 16.2261806,6.25238581 C13.5043878,6.25238581 11.879533,7.56358706 11.879533,9.24308372 Z" id="path-64"></path>
        <filter x="-44.2%" y="-34.5%" width="188.4%" height="169.0%" filterUnits="objectBoundingBox" id="filter-65">
            <feGaussianBlur stdDeviation="3" in="SourceAlpha" result="shadowBlurInner1"></feGaussianBlur>
            <feOffset dx="0" dy="1" in="shadowBlurInner1" result="shadowOffsetInner1"></feOffset>
            <feComposite in="shadowOffsetInner1" in2="SourceAlpha" operator="arithmetic" k2="-1" k3="1" result="shadowInnerInner1"></feComposite>
            <feColorMatrix values="0 0 0 0 0.550073596   0 0 0 0 0.550073596   0 0 0 0 0.550073596  0 0 0 0.5 0" type="matrix" in="shadowInnerInner1"></feColorMatrix>
        </filter>
        <linearGradient x1="134.305441%" y1="39.3482392%" x2="-57.9325958%" y2="39.3482392%" id="linearGradient-66">
            <stop stop-color="#301911" offset="0%"></stop>
            <stop stop-color="#6E431C" offset="43.1132407%"></stop>
            <stop stop-color="#381B0E" offset="100%"></stop>
        </linearGradient>
        <path d="M13.407894,5.37890394 C13.407894,5.51715202 14.6283922,5.8748684 15.8104933,5.90310888 C17.0185442,5.93196931 18.1887614,5.62838864 18.1887614,5.49252037 C18.3410229,5.04941627 17.0910127,0 15.8104933,0 C14.5299739,0 13.407894,4.64990226 13.407894,5.37890394 Z" id="path-67"></path>
        <filter x="-52.2%" y="-42.3%" width="204.3%" height="184.7%" filterUnits="objectBoundingBox" id="filter-68">
            <feGaussianBlur stdDeviation="2" in="SourceAlpha" result="shadowBlurInner1"></feGaussianBlur>
            <feOffset dx="0" dy="1" in="shadowBlurInner1" result="shadowOffsetInner1"></feOffset>
            <feComposite in="shadowOffsetInner1" in2="SourceAlpha" operator="arithmetic" k2="-1" k3="1" result="shadowInnerInner1"></feComposite>
            <feColorMatrix values="0 0 0 0 0.258293705   0 0 0 0 0.135666111   0 0 0 0 0.0379614967  0 0 0 1 0" type="matrix" in="shadowInnerInner1"></feColorMatrix>
        </filter>
        <linearGradient x1="26.0416322%" y1="76.6349585%" x2="42.6220708%" y2="9.64316766%" id="linearGradient-69">
            <stop stop-color="#301911" offset="0%"></stop>
            <stop stop-color="#AF6F27" offset="100%"></stop>
        </linearGradient>
        <radialGradient cx="50%" cy="50%" fx="50%" fy="50%" r="226.320525%" gradientTransform="translate(0.500000,0.500000),scale(0.500000,1.000000),rotate(-0.539260),scale(1.000000,0.801691),translate(-0.500000,-0.500000)" id="radialGradient-70">
            <stop stop-color="#FFFFFF" offset="0%"></stop>
            <stop stop-color="#D8D8D8" offset="100%"></stop>
        </radialGradient>
        <path d="M7.16956244,45.8687449 C7.14751262,46.0457105 7.12709602,46.179495 7.10831265,46.2700983 C7.08952929,46.3607015 7.0442131,46.4980903 6.97236411,46.6822645 C7.28117501,47.0587681 7.72627916,47.148765 8.30767656,46.9522552 C8.74471983,46.8045365 9.11036978,46.2402532 9.69795074,45.7389916 C9.82733494,45.6286148 10.0812867,45.5120745 10.459806,45.3893708 C10.1559858,45.2830379 9.90203401,45.2830379 9.69795074,45.3893708 C9.13592004,45.682204 8.83151255,46.0956412 8.50176073,46.1476152 C7.97590387,46.2304984 7.53183778,46.1375416 7.16956244,45.8687449 Z" id="path-71"></path>
        <filter x="-100.4%" y="-200.7%" width="300.7%" height="501.4%" filterUnits="objectBoundingBox" id="filter-72">
            <feGaussianBlur stdDeviation="3" in="SourceAlpha" result="shadowBlurInner1"></feGaussianBlur>
            <feOffset dx="0" dy="1" in="shadowBlurInner1" result="shadowOffsetInner1"></feOffset>
            <feComposite in="shadowOffsetInner1" in2="SourceAlpha" operator="arithmetic" k2="-1" k3="1" result="shadowInnerInner1"></feComposite>
            <feColorMatrix values="0 0 0 0 0.629698822   0 0 0 0 0.629698822   0 0 0 0 0.629698822  0 0 0 0.5 0" type="matrix" in="shadowInnerInner1"></feColorMatrix>
        </filter>
    </defs>
    <g id="吉祥物" stroke="none" stroke-width="1" fill="none" fill-rule="evenodd">
        <g id="分组-3" transform="translate(28.000000, 37.000000)">
            <ellipse id="椭圆形" fill-opacity="0.6" fill="url(#radialGradient-1)" filter="url(#filter-2)" cx="72.4023256" cy="72.4023256" rx="71.644186" ry="72.4023256"></ellipse>
            <path d="M64.9716476,106.025884 C83.9396638,106.025884 105.67021,89.9913589 105.67021,64.0627907 C105.67021,38.1342225 88.6540266,12.1302326 64.9716476,12.1302326 C41.2892687,12.1302326 32.3339328,34.5714953 26.9854761,59.5139535 C24.4902101,71.150594 24.5746529,92.7467758 30.6270162,101.210722 C36.8627683,109.931129 55.3460995,106.025884 64.9716476,106.025884 Z" id="椭圆形" fill="url(#linearGradient-3)"></path>
            <path d="M23.5513633,100.441996 C32.7358764,100.441996 40.1813953,91.0253686 40.1813953,79.4093701 C40.1813953,67.7933716 32.7358764,58.3767442 23.5513633,58.3767442 C14.3668502,58.3767442 9.51111027,68.2351488 6.92133123,79.4093701 C5.71309715,84.6225851 3.99071318,94.4929555 6.92133123,98.2848036 C9.94074802,102.191546 18.8905716,100.441996 23.5513633,100.441996 Z" id="椭圆形-copy-4" fill="url(#linearGradient-4)"></path>
            <path d="M115.341273,119.786047 C134.659355,119.786047 140.226696,118.699556 146.494025,97.6730056 C149.240861,88.4575166 143.676739,80.6511455 139.497674,70.5286379 C134.141563,57.5550934 128.449327,43.2139535 117.597949,43.2139535 C98.2798668,43.2139535 80.3627907,58.4703484 80.3627907,80.2857563 C80.3627907,102.101164 96.0231905,119.786047 115.341273,119.786047 Z" id="椭圆形-copy-3" fill="url(#linearGradient-5)"></path>
            <g id="云" fill-rule="nonzero" filter="url(#filter-7)">
                <use fill="#FFFFFF" xlink:href="#path-6"></use>
                <use fill="black" fill-opacity="1" filter="url(#filter-8)" xlink:href="#path-6"></use>
            </g>
            <g id="云" fill-rule="nonzero" filter="url(#filter-10)">
                <use fill="#FFFFFF" xlink:href="#path-9"></use>
                <use fill="black" fill-opacity="1" filter="url(#filter-11)" xlink:href="#path-9"></use>
            </g>
            <ellipse id="椭圆形" fill="url(#linearGradient-12)" cx="71.2651163" cy="109.551163" rx="71.2651163" ry="19.3325581"></ellipse>
            <g id="树-copy-3" transform="translate(43.972093, 103.106977)">
                <rect id="矩形" fill="url(#linearGradient-13)" x="7.58139535" y="12.1302326" width="1.51627907" height="10.6139535"></rect>
                <polygon id="矩形-copy-5" fill="url(#linearGradient-14)" opacity="0.89811" filter="url(#filter-15)" transform="translate(22.924269, 22.330876) rotate(91.000000) translate(-22.924269, -22.330876) " points="22.3889308 6.34851977 23.4653063 6.34832982 23.4596079 38.3132313 22.3832324 38.3134213"></polygon>
                <polygon id="路径-4" fill="#F3A96B" points="8.33953488 0 8.33953488 14.4046512 13.6465116 10.9830996"></polygon>
                <polygon id="路径-4-copy" fill="#FFCA4A" transform="translate(4.169767, 7.202326) scale(-1, 1) translate(-4.169767, -7.202326) " points="0 0 1.44540976e-13 14.4046512 8.33953488 11.0139603"></polygon>
            </g>
            <g id="树-copy-7" transform="translate(6.065116, 82.637209)">
                <rect id="矩形" fill="url(#linearGradient-16)" x="5.30697674" y="9.85581395" width="1.51627907" height="7.58139535"></rect>
                <polygon id="矩形-copy-5" fill="url(#linearGradient-17)" opacity="0.89811" filter="url(#filter-18)" transform="translate(17.634053, 17.288420) rotate(91.000000) translate(-17.634053, -17.288420) " points="17.2209826 4.99432215 18.0543039 4.99408283 18.0471241 29.5825174 17.2138027 29.5827567"></polygon>
                <polygon id="路径-4" fill="#F3A96B" points="6.06511628 0 6.06511628 11.372093 9.85581395 8.67086809"></polygon>
                <polygon id="路径-4-copy" fill="#FFCA4A" transform="translate(3.032558, 5.686047) scale(-1, 1) translate(-3.032558, -5.686047) " points="0 0 1.0512071e-13 11.372093 6.06511628 8.69523179"></polygon>
            </g>
            <ellipse id="椭圆形" fill="url(#linearGradient-19)" cx="78.8465116" cy="101.969767" rx="19.7116279" ry="5.68604651"></ellipse>
            <g id="树-copy-5" transform="translate(115.995349, 91.734884)">
                <rect id="矩形" fill="url(#linearGradient-16)" x="5.30697674" y="9.09767442" width="1.51627907" height="7.58139535"></rect>
                <polygon id="矩形-copy-5" fill="url(#linearGradient-20)" opacity="0.840634301" filter="url(#filter-21)" transform="translate(11.479073, 16.568069) rotate(91.000000) translate(-11.479073, -16.568069) " points="11.1783032 10.2339134 11.9769042 10.2337598 11.7798427 22.9022245 10.9812417 22.902378"></polygon>
                <polygon id="路径-4" fill="#F3A96B" points="6.06511628 0 6.06511628 10.6139535 9.85581395 8.09281021"></polygon>
                <polygon id="路径-4-copy" fill="#FFCA4A" transform="translate(3.032558, 5.306977) scale(-1, 1) translate(-3.032558, -5.306977) " points="0 0 1.0512071e-13 10.6139535 6.06511628 8.11554967"></polygon>
            </g>
            <path d="M107.128922,59.8859618 C121.533573,57.7700275 128.988612,53.6242907 129.494038,47.4487514 C130.252178,38.1854423 121.162633,43.1150188 123.456985,47.4487514 C125.751337,51.7824839 147.48115,53.390541 161.086425,38.8137838" id="路径-8" stroke="#FF8300" stroke-dasharray="3" transform="translate(134.107673, 49.349873) rotate(-14.000000) translate(-134.107673, -49.349873) "></path>
            <g id="飞机" transform="translate(71.447368, 68.871070) rotate(-12.000000) translate(-71.447368, -68.871070) translate(30.507834, 38.166419)">
                <g id="路径-13">
                    <use fill="url(#linearGradient-22)" xlink:href="#path-24"></use>
                    <use fill-opacity="0.8" fill="url(#linearGradient-23)" xlink:href="#path-24"></use>
                </g>
                <g id="路径-13-copy">
                    <use fill="black" fill-opacity="1" filter="url(#filter-28)" xlink:href="#path-27"></use>
                    <use fill="url(#linearGradient-25)" fill-rule="evenodd" xlink:href="#path-27"></use>
                    <use fill-opacity="0.8" fill="url(#linearGradient-26)" fill-rule="evenodd" xlink:href="#path-27"></use>
                </g>
                <g id="路径-15">
                    <use fill="url(#linearGradient-29)" fill-rule="evenodd" xlink:href="#path-31"></use>
                    <use fill="url(#linearGradient-30)" fill-rule="evenodd" xlink:href="#path-31"></use>
                    <use fill="black" fill-opacity="1" filter="url(#filter-32)" xlink:href="#path-31"></use>
                </g>
                <g id="路径-14">
                    <use fill="url(#linearGradient-33)" fill-rule="evenodd" xlink:href="#path-34"></use>
                    <use fill="black" fill-opacity="1" filter="url(#filter-35)" xlink:href="#path-34"></use>
                </g>
            </g>
            <g id="分组-10" transform="translate(61.409302, 15.920930)">
                <g id="脚-后" transform="translate(22.875778, 46.744845) rotate(-64.000000) translate(-22.875778, -46.744845) ">
                    <use fill="#FFFFFF" fill-rule="evenodd" xlink:href="#path-36"></use>
                    <use fill="black" fill-opacity="1" filter="url(#filter-37)" xlink:href="#path-36"></use>
                </g>
                <g id="脚-后" transform="translate(22.942441, 50.087294) rotate(-38.000000) translate(-22.942441, -50.087294) ">
                    <use fill="#FFFFFF" fill-rule="evenodd" xlink:href="#path-38"></use>
                    <use fill="black" fill-opacity="1" filter="url(#filter-39)" xlink:href="#path-38"></use>
                </g>
                <mask id="mask-42" fill="white">
                    <use xlink:href="#path-41"></use>
                </mask>
                <g id="身子" transform="translate(17.715093, 43.084430) scale(-1, 1) translate(-17.715093, -43.084430) ">
                    <use fill="url(#radialGradient-40)" fill-rule="evenodd" xlink:href="#path-41"></use>
                    <use fill="#FFFFFF" fill-rule="evenodd" xlink:href="#path-41"></use>
                    <use fill="black" fill-opacity="1" filter="url(#filter-43)" xlink:href="#path-41"></use>
                </g>
                <g id="肚子" transform="translate(22.628921, 41.317591) scale(-1, 1) rotate(6.000000) translate(-22.628921, -41.317591) ">
                    <use fill="url(#radialGradient-44)" xlink:href="#path-45"></use>
                    <use fill="#E4E4E4" xlink:href="#path-45"></use>
                </g>
                <g id="路径" transform="translate(22.003935, 39.514152) rotate(-63.000000) translate(-22.003935, -39.514152) ">
                    <use fill="url(#radialGradient-46)" xlink:href="#path-47"></use>
                    <use fill="#FFFFFF" xlink:href="#path-47"></use>
                </g>
                <path d="M23.8011814,39.9741505 C24.0795021,41.466656 24.7671796,42.5322693 25.6444194,42.5127165 C26.6689207,42.4898813 26.9139318,41.1874955 27.0244068,39.9661738 L23.8011814,39.9741505 Z" id="路径" fill="url(#linearGradient-48)" fill-rule="nonzero" transform="translate(25.412794, 41.239578) rotate(-62.000000) translate(-25.412794, -41.239578) "></path>
                <g id="围巾" transform="translate(18.209430, 37.941418) scale(-1, 1) translate(-18.209430, -37.941418) ">
                    <use fill="url(#linearGradient-49)" fill-rule="evenodd" xlink:href="#path-50"></use>
                    <use fill="#FD5902" fill-rule="evenodd" xlink:href="#path-50"></use>
                    <use fill="black" fill-opacity="1" filter="url(#filter-51)" xlink:href="#path-50"></use>
                </g>
                <g id="头" transform="translate(17.437209, 19.836818) scale(-1, 1) translate(-17.437209, -19.836818) translate(0.000000, 3.794586)">
                    <mask id="mask-54" fill="white">
                        <use xlink:href="#path-53"></use>
                    </mask>
                    <g id="Mask">
                        <use fill="url(#radialGradient-52)" fill-rule="evenodd" xlink:href="#path-53"></use>
                        <use fill="#FFFFFF" fill-rule="evenodd" xlink:href="#path-53"></use>
                        <use fill="black" fill-opacity="1" filter="url(#filter-55)" xlink:href="#path-53"></use>
                    </g>
                    <g id="路径-2" mask="url(#mask-54)" transform="translate(13.180413, 12.063792) rotate(13.000000) translate(-13.180413, -12.063792) ">
                        <use fill="url(#radialGradient-56)" fill-rule="evenodd" xlink:href="#path-57"></use>
                        <use fill="#000000" fill-rule="evenodd" xlink:href="#path-57"></use>
                        <use fill="black" fill-opacity="1" filter="url(#filter-58)" xlink:href="#path-57"></use>
                    </g>
                    <g id="椭圆形" mask="url(#mask-54)" transform="translate(9.470960, 27.484286) rotate(17.000000) translate(-9.470960, -27.484286) ">
                        <use fill="url(#radialGradient-59)" fill-rule="evenodd" xlink:href="#path-60"></use>
                        <use fill="#E4E4E4" fill-rule="evenodd" xlink:href="#path-60"></use>
                        <use fill="black" fill-opacity="1" filter="url(#filter-61)" xlink:href="#path-60"></use>
                    </g>
                    <circle id="椭圆形" fill="#FF5151" mask="url(#mask-54)" cx="14.20681" cy="25.3484794" r="3.29987029"></circle>
                    <g id="eye" mask="url(#mask-54)" fill-rule="nonzero">
                        <g transform="translate(9.764038, 16.637455) scale(-1, 1) rotate(-4.000000) translate(-9.764038, -16.637455) translate(4.009759, 10.883176)">
                            <path d="M10.802446,9.00697665 C9.28806816,11.6982876 5.35555645,11.6982876 3.46650794,10.7729475 C0.411203904,9.27632364 -0.710924354,6.01552014 0.446727742,3.32541431 C1.60437984,0.635308481 4.95394312,-0.924766284 8.01058399,0.597127321 C10.8527237,2.01277552 12.3904693,6.18644836 10.802446,9.00697665 Z" id="路径" stroke="none" fill="#FFFFFF"></path>
                            <ellipse id="椭圆形" stroke="#2C1F1B" stroke-width="0.5" fill="url(#radialGradient-62)" cx="6.01654449" cy="5.96087389" rx="4.73433009" ry="4.7785518"></ellipse>
                            <ellipse id="椭圆形" stroke="none" fill="#301911" cx="6.11517637" cy="6.01013731" rx="3.94527508" ry="3.94107365"></ellipse>
                            <ellipse id="椭圆形" stroke="none" fill="#000000" cx="6.11517637" cy="6.05940073" rx="1.87400566" ry="1.9212734"></ellipse>
                            <ellipse id="椭圆形" stroke="none" fill="#FFFFFF" transform="translate(4.058690, 4.124782) rotate(-52.780000) translate(-4.058690, -4.124782) " cx="4.05868967" cy="4.12478226" rx="1.52696263" ry="1.19546655"></ellipse>
                            <circle id="椭圆形" stroke="none" fill="#FFFFFF" transform="translate(2.596969, 5.652558) rotate(-69.520000) translate(-2.596969, -5.652558) " cx="2.59696891" cy="5.65255847" r="1"></circle>
                        </g>
                    </g>
                    <path d="M1.63570885,27.3957856 C2.09890413,28.393348 2.94040138,28.8923108 4.16020059,28.8926742 C5.37999981,28.8930373 6.20234583,28.3945699 6.62723864,27.397272" id="路径-3" stroke="#301911" stroke-linecap="round" mask="url(#mask-54)" transform="translate(4.131474, 28.144230) rotate(-17.000000) translate(-4.131474, -28.144230) "></path>
                </g>
                <g id="耳朵" transform="translate(15.839377, 11.323765) scale(-1, 1) translate(-15.839377, -11.323765) ">
                    <use fill="url(#radialGradient-63)" fill-rule="evenodd" xlink:href="#path-64"></use>
                    <use fill="#FFFFFF" fill-rule="evenodd" xlink:href="#path-64"></use>
                    <use fill="black" fill-opacity="1" filter="url(#filter-65)" xlink:href="#path-64"></use>
                </g>
                <g id="角" fill-rule="nonzero" transform="translate(15.804642, 2.952516) scale(-1, 1) translate(-15.804642, -2.952516) ">
                    <use fill="url(#linearGradient-66)" xlink:href="#path-67"></use>
                    <use fill="black" fill-opacity="1" filter="url(#filter-68)" xlink:href="#path-67"></use>
                </g>
                <path d="M5.71760283,46.6001056 C6.03948384,46.638523 6.50734661,46.4935998 6.69606519,46.2559636 C6.82643894,46.0917958 6.99231949,45.9442804 7.16062405,45.8406807 C7.32638476,45.7386468 7.47473315,45.7386468 7.60566921,45.8406807 C7.60566921,45.1975704 6.81595511,44.6068145 5.96423058,44.6068145 C5.11250605,44.6068145 4.86619794,45.3235906 4.86619794,45.7036708 C4.86619794,46.0837511 5.16530241,46.534187 5.71760283,46.6001056 Z" id="椭圆形" fill="url(#linearGradient-69)" fill-rule="nonzero" transform="translate(6.235934, 45.606533) scale(-1, 1) translate(-6.235934, -45.606533) "></path>
                <g id="路径-7" transform="translate(8.716085, 46.181482) scale(-1, 1) translate(-8.716085, -46.181482) ">
                    <use fill="url(#radialGradient-70)" fill-rule="evenodd" xlink:href="#path-71"></use>
                    <use fill="black" fill-opacity="1" filter="url(#filter-72)" xlink:href="#path-71"></use>
                </g>
            </g>
        </g>
    </g>
</svg>